<?xml version="1.0" encoding="UTF-8" standalone="no" ?>
<!DOCTYPE svg PUBLIC "-//W3C//DTD SVG 1.1//EN" "http://www.w3.org/Graphics/SVG/1.1/DTD/svg11.dtd">
<svg xmlns="http://www.w3.org/2000/svg" xmlns:xlink="http://www.w3.org/1999/xlink" version="1.1" width="256" height="204" viewBox="0 0 1280 1024" xml:space="preserve">
<desc>Created with Fabric.js 4.4.0</desc>
<defs>
</defs>
<g transform="matrix(1 0 0 1 640 512)" id="background-logo"  >
<rect style="stroke: none; stroke-width: 0; stroke-dasharray: none; stroke-linecap: butt; stroke-dashoffset: 0; stroke-linejoin: miter; stroke-miterlimit: 4; fill: rgb(255,255,255); fill-rule: nonzero; opacity: 1;"  paint-order="stroke"  x="-640" y="-512" rx="0" ry="0" width="1280" height="1024" />
</g>
<g transform="matrix(1.9211538461538462 0 0 1.9211538461538462 640.0000000000001 256.2456897266468)" id="logo-logo"  >
<g style=""  paint-order="stroke"   >
		<g transform="matrix(0.24053257427417507 0 0 -0.24053257427417504 0.00005498924326730048 -0.00005498924323887877)"  >
<path style="stroke: none; stroke-width: 1; stroke-dasharray: none; stroke-linecap: butt; stroke-dashoffset: 0; stroke-linejoin: miter; stroke-miterlimit: 4; fill: rgb(217,232,252); fill-rule: evenodd; opacity: 1;"  paint-order="stroke"  transform=" translate(-420.00001499999996, -420.00001499999996)" d="M 420 838.293 C 651.016 838.293 838.293 651.016 838.293 420 C 838.293 188.984 651.016 1.70703 420 1.70703 C 188.984 1.70703 1.70703 188.984 1.70703 420 C 1.70703 651.016 188.984 838.293 420 838.293" stroke-linecap="round" />
</g>
		<g transform="matrix(0.255763922286362 0 0 -0.255763922286362 69.50594314548158 4.138081227847749)"  >
<path style="stroke: none; stroke-width: 1; stroke-dasharray: none; stroke-linecap: butt; stroke-dashoffset: 0; stroke-linejoin: miter; stroke-miterlimit: 4; fill: rgb(17,96,208); fill-rule: evenodd; opacity: 1;"  paint-order="stroke"  transform=" translate(-691.758, -403.8205)" d="M 742.172 535.078 C 738.109 480.48 643.703 339.309 609.059 272.563 C 659.156 305.484 773.492 372.67199999999997 774.457 438.23 C 769.527 470.656 756.512 506.879 742.172 535.078" stroke-linecap="round" />
</g>
		<g transform="matrix(0.255763922286362 0 0 -0.255763922286362 -70.62822244827805 4.138081227847749)"  >
<path style="stroke: none; stroke-width: 1; stroke-dasharray: none; stroke-linecap: butt; stroke-dashoffset: 0; stroke-linejoin: miter; stroke-miterlimit: 4; fill: rgb(17,96,208); fill-rule: evenodd; opacity: 1;"  paint-order="stroke"  transform=" translate(-143.85365000000002, -403.8205)" d="M 93.4414 535.078 C 97.5039 480.48 191.914 339.309 226.551 272.563 C 176.457 305.484 62.1211 372.672 61.1563 438.23 C 66.0859 470.656 79.1016 506.879 93.4414 535.078" stroke-linecap="round" />
</g>
		<g transform="matrix(0.255763922286362 0 0 -0.255763922286362 0.000502618399707444 -48.51872297442961)"  >
<path style="stroke: none; stroke-width: 1; stroke-dasharray: none; stroke-linecap: butt; stroke-dashoffset: 0; stroke-linejoin: miter; stroke-miterlimit: 4; fill: rgb(17,96,208); fill-rule: evenodd; opacity: 1;"  paint-order="stroke"  transform=" translate(-420.0017651653575, -609.701)" d="M 670.555 656.742 C 605.164 718.43 516.996 756.242 419.99999999999994 756.242 C 323.0079999999999 756.242 234.83999999999995 718.43 169.44899999999996 656.742 C 108.33599999999996 596.6329999999999 123.31999999999996 534.805 158.46099999999996 463.164 C 161.75799999999995 497.855 171.99999999999994 541.953 188.03099999999995 611.004 L 196.00799999999995 645.434 C 196.55499999999995 648.23 197.84799999999996 650.91 199.90199999999996 653.168 C 205.89099999999996 659.75 216.08599999999996 660.227 222.66399999999996 654.238 C 232.42599999999996 645.3710000000001 248.23399999999995 630.7460000000001 263.94899999999996 616.2070000000001 C 314.29299999999995 569.6250000000001 363.67999999999995 523.9340000000001 419.00399999999996 484.7660000000001 L 617.324 654.219 C 619.309 656.0390000000001 621.7769999999999 657.379 624.5859999999999 658.023 C 633.2579999999999 660.004 641.8979999999999 654.586 643.8789999999999 645.914 L 651.9689999999999 611.008 C 668 541.953 678.242 497.852 681.539 463.16 C 716.684 534.8050000000001 731.668 596.633 670.555 656.742" stroke-linecap="round" />
</g>
		<g transform="matrix(0.255763922286362 0 0 -0.255763922286362 0.00005115278440825932 -45.402111699409204)"  >
<path style="stroke: none; stroke-width: 1; stroke-dasharray: none; stroke-linecap: butt; stroke-dashoffset: 0; stroke-linejoin: miter; stroke-miterlimit: 4; fill: rgb(38,121,237); fill-rule: evenodd; opacity: 1;"  paint-order="stroke"  transform=" translate(-420, -597.5155000000001)" d="M 128.441 553.848 C 131.141 525.0939999999999 142.793 495.10499999999996 158.461 463.164 C 161.758 497.855 172 541.953 188.031 611.004 L 196.008 645.434 C 196.555 648.23 197.848 650.91 199.90200000000002 653.168 C 205.89100000000002 659.75 216.086 660.227 222.66400000000002 654.238 C 232.42600000000002 645.3710000000001 248.234 630.7460000000001 263.949 616.2070000000001 C 314.293 569.6250000000001 363.68 523.9340000000001 419.004 484.7660000000001 L 617.3240000000001 654.219 C 619.3090000000001 656.0390000000001 621.777 657.379 624.586 658.023 C 633.258 660.004 641.898 654.586 643.879 645.914 L 651.969 611.008 C 668 541.953 678.242 497.852 681.539 463.16 C 697.207 495.10200000000003 708.8629999999999 525.09 711.559 553.8480000000001 C 708.852 580.754 696.637 606.719 670.555 632.3670000000001 C 605.164 694.0550000000001 516.996 731.8710000000001 419.99999999999994 731.8710000000001 C 323.0079999999999 731.8710000000001 234.83999999999995 694.0550000000001 169.44899999999996 632.3670000000001 C 143.37099999999995 606.719 131.15599999999995 580.7540000000001 128.44099999999995 553.8480000000001" stroke-linecap="round" />
</g>
		<g transform="matrix(0.255763922286362 0 0 -0.255763922286362 0.00001278819604522141 43.49574972825559)"  >
<path style="stroke: none; stroke-width: 1; stroke-dasharray: none; stroke-linecap: butt; stroke-dashoffset: 0; stroke-linejoin: miter; stroke-miterlimit: 4; fill: rgb(17,96,208); fill-rule: evenodd; opacity: 1;"  paint-order="stroke"  transform=" translate(-419.99985000000004, -249.9377)" d="M 62.625 396.598 C 73 382.168 85.1992 368.703 98.1602 356.129 C 146.488 309.234 212.426 267.285 273.469 235.262 C 273.613 235.188 273.754 235.113 273.89799999999997 235.035 L 274.094 234.93 L 274.289 234.81300000000002 C 293.04699999999997 223.359 311.551 211.609 330.03499999999997 199.80100000000002 C 346.22999999999996 189.453 363 178.30900000000003 380.17199999999997 169.371 C 390.72299999999996 163.87900000000002 402.13699999999994 158.977 414.383 157.859 C 415.781 157.734 417.18399999999997 157.656 418.59 157.621 L 418.887 157.61700000000002 L 419.18 157.59000000000003 C 419.45300000000003 157.56600000000003 419.72700000000003 157.55500000000004 420 157.55500000000004 C 421.816 157.55500000000004 423.633 157.63300000000004 425.441 157.79300000000003 C 437.695 158.87900000000005 449.125 163.78500000000003 459.67199999999997 169.27300000000002 C 476.89799999999997 178.23400000000004 493.72299999999996 189.42200000000003 509.96899999999994 199.80100000000002 C 528.453 211.609 546.9609999999999 223.359 565.914 234.91400000000002 L 566.172 235.074 L 566.441 235.215 C 627.5120000000001 267.238 693.4920000000001 309.219 741.84 356.129 C 754.801 368.70300000000003 767 382.172 777.379 396.60200000000003 L 794.57 420.516 L 792.176 392.03900000000004 C 785.391 311.277 747.02 235.848 683.941 178.598 C 613.719 114.855 519.328 79.3594 420 79.3594 C 320.676 79.3594 226.281 114.855 156.059 178.598 C 92.9844 235.848 54.6133 311.273 47.8242 392.035 L 45.4297 420.50800000000004 L 62.625 396.598" stroke-linecap="round" />
</g>
		<g transform="matrix(0.255763922286362 0 0 -0.255763922286362 0.0005371042367983137 56.465308039866954)"  >
<path style="stroke: none; stroke-width: 1; stroke-dasharray: none; stroke-linecap: butt; stroke-dashoffset: 0; stroke-linejoin: miter; stroke-miterlimit: 4; fill: rgb(38,121,237); fill-rule: evenodd; opacity: 1;"  paint-order="stroke"  transform=" translate(-420.0019, -199.22859999999997)" d="M 789.41 361.508 C 765.023 160.027 588.777 36.9492 420 36.9492 C 198.117 36.9492 75.1211 207.789 50.5938 361.496 L 62.625 344.77 C 73 330.344 85.1992 316.875 98.1602 304.301 C 146.488 257.41 212.426 215.453 273.469 183.434 C 273.613 183.359 273.754 183.289 273.89799999999997 183.21099999999998 L 274.094 183.10199999999998 L 274.289 182.98799999999997 C 293.04699999999997 171.53099999999998 311.551 159.78099999999998 330.03499999999997 147.96899999999997 C 346.22999999999996 137.62499999999997 363 126.47999999999996 380.17199999999997 117.54299999999996 C 390.72299999999996 112.05099999999996 402.13699999999994 107.15199999999996 414.383 106.03099999999996 C 415.781 105.90599999999996 417.18399999999997 105.82799999999996 418.59 105.79299999999996 L 418.887 105.78899999999996 L 419.18 105.76199999999996 C 419.45300000000003 105.73799999999996 419.72700000000003 105.72699999999996 420 105.72699999999996 C 421.816 105.72699999999996 423.633 105.80499999999996 425.441 105.96499999999996 C 437.695 107.05099999999996 449.125 111.95699999999997 459.67199999999997 117.44499999999996 C 476.89799999999997 126.40599999999996 493.72299999999996 137.59399999999997 509.96899999999994 147.96899999999997 C 528.453 159.78099999999998 546.9609999999999 171.53099999999998 565.914 183.08599999999996 L 566.172 183.24599999999995 L 566.441 183.38699999999994 C 627.5120000000001 215.41399999999993 693.4920000000001 257.3949999999999 741.84 304.30099999999993 C 754.801 316.8789999999999 767 330.34399999999994 777.379 344.7729999999999 L 789.41 361.5079999999999" stroke-linecap="round" />
</g>
		<g transform="matrix(0.255763922286362 0 0 -0.255763922286362 -0.00000717061072919023 -7.000053941839866)"  >
<path style="stroke: none; stroke-width: 1; stroke-dasharray: none; stroke-linecap: butt; stroke-dashoffset: 0; stroke-linejoin: miter; stroke-miterlimit: 4; fill: rgb(17,96,208); fill-rule: evenodd; opacity: 1;"  paint-order="stroke"  transform=" translate(-419.9997719639475, -447.369)" d="M 425.258 487.281 L 425.39099999999996 487.461 L 426.152 488.098 C 426.777 488.62100000000004 427.395 489.156 428.01599999999996 489.69100000000003 C 428.09 489.754 428.16799999999995 489.82000000000005 428.164 489.81600000000003 L 623.328 656.5740000000001 L 628.43 634.6020000000001 C 636.281 600.7810000000001 644.5 566.7270000000001 651.012 532.6250000000001 C 655.1049999999999 511.2230000000001 658.7969999999999 488.5430000000001 658.4879999999999 466.6950000000001 L 658.3979999999999 460.6450000000001 L 652.5659999999999 459.0310000000001 C 597.48 443.832 544.633 423.922 501.426 385.176 C 464.891 352.418 441.461 311.531 427.746 264.641 L 420 238.164 L 412.254 264.64099999999996 C 398.543 311.53099999999995 375.10900000000004 352.41799999999995 338.57800000000003 385.17599999999993 C 295.367 423.92599999999993 242.51600000000002 443.83199999999994 187.43000000000004 459.03099999999995 L 181.59800000000004 460.6449999999999 L 181.51200000000003 466.6989999999999 C 181.19900000000004 488.5429999999999 184.89100000000002 511.2229999999999 188.98400000000004 532.6249999999999 C 195.50000000000003 566.7229999999998 203.71500000000003 600.781 211.57000000000005 634.6019999999999 L 216.57000000000005 656.1449999999999 L 247.60500000000005 627.5199999999999 C 301.06300000000005 578.1989999999998 354.47300000000007 528.6289999999999 414.586 487.3749999999999 L 414.809 487.2229999999999 L 415.016 487.0589999999999 C 416.445 485.9299999999999 418.17600000000004 485.33199999999994 420 485.33199999999994 C 421.949 485.33199999999994 423.797 486.0199999999999 425.258 487.28099999999995" stroke-linecap="round" />
</g>
		<g transform="matrix(0.255763922286362 0 0 -0.255763922286362 0.00005115278440825932 -1.2848812163899481)"  >
<path style="stroke: none; stroke-width: 1; stroke-dasharray: none; stroke-linecap: butt; stroke-dashoffset: 0; stroke-linejoin: miter; stroke-miterlimit: 4; fill: rgb(38,121,237); fill-rule: evenodd; opacity: 1;"  paint-order="stroke"  transform=" translate(-420, -425.0235)" d="M 638.172 454.926 C 588.313 440.207 540.855 420.535 501.426 385.176 C 464.891 352.418 441.461 311.531 427.746 264.641 L 420 238.164 L 412.254 264.64099999999996 C 398.543 311.53099999999995 375.10900000000004 352.41799999999995 338.57800000000003 385.17599999999993 C 299.148 420.53899999999993 251.68800000000005 440.20699999999994 201.82800000000003 454.92999999999995 C 202.93000000000004 469.477 205.43000000000004 484.13699999999994 208.11700000000002 498.19899999999996 C 214.09000000000003 529.473 221.62900000000002 560.711 228.83200000000002 591.73 L 233.41800000000003 611.492 L 261.88300000000004 585.2339999999999 C 310.91 539.9959999999999 359.90200000000004 494.5349999999999 415.035 456.69499999999994 L 415.238 456.55499999999995 L 415.43 456.40599999999995 C 416.738 455.3709999999999 418.332 454.82399999999996 420.004 454.82399999999996 C 421.78900000000004 454.82399999999996 423.48400000000004 455.453 424.824 456.60499999999996 L 424.945 456.77299999999997 L 425.645 457.359 C 426.219 457.84 426.78499999999997 458.328 427.352 458.82 C 427.42199999999997 458.879 427.49199999999996 458.938 427.488 458.93399999999997 L 606.496 611.883 L 611.1759999999999 591.73 C 618.3749999999999 560.711 625.91 529.477 631.887 498.199 C 634.574 484.137 637.0699999999999 469.47700000000003 638.1719999999999 454.926" stroke-linecap="round" />
</g>
		<g transform="matrix(0.255763922286362 0 0 -0.255763922286362 0 0)"  >
<path style="stroke: none; stroke-width: 1; stroke-dasharray: none; stroke-linecap: butt; stroke-dashoffset: 0; stroke-linejoin: miter; stroke-miterlimit: 4; fill: rgb(4,24,52); fill-rule: evenodd; opacity: 1;"  paint-order="stroke"  transform=" translate(-419.99980000000005, -419.99980000000005)" d="M 701.063 701.063 C 629.137 772.992 529.762 817.484 420 817.484 C 310.238 817.484 210.867 772.992 138.938 701.063 C 80.2266 642.355 39.8047 565.363 26.9258 479.359 L 26.7734 478.32 C 23.9727 459.285 22.5156 439.813 22.5156 420 C 22.5156 310.238 67.0117 210.867 138.938 138.938 C 210.867 67.0117 310.238 22.5156 420 22.5156 C 529.762 22.5156 629.137 67.01169999999999 701.063 138.938 C 772.992 210.867 817.484 310.238 817.484 420 C 817.484 439.836 816.023 459.332 813.219 478.387 L 813.094 479.273 C 800.227 565.309 759.793 642.34 701.063 701.063 Z M 420 785.203 C 516.836 785.203 604.867 747.5079999999999 670.227 686.004 C 705.074 651.875 715.355 617.1990000000001 711.316 580.488 C 710.844 576.191 710.176 571.8670000000001 709.328 567.5160000000001 C 704.6329999999999 543.445 694.4449999999999 518.4490000000001 681.539 492.1290000000001 C 678.242 526.82 668 570.922 651.9689999999999 639.9650000000001 L 649.457 650.8010000000002 L 643.879 674.8750000000001 C 641.898 683.5470000000001 633.258 688.9650000000001 624.586 686.9800000000001 C 621.777 686.3360000000001 619.309 684.9960000000001 617.3240000000001 683.1760000000002 L 611.156 677.91 L 419.004 513.727 C 363.68 552.895 314.293 598.586 263.949 645.164 C 251.121 657.035 238.227 668.961 228.61700000000002 677.766 C 226.45300000000003 679.746 224.45700000000002 681.5699999999999 222.66400000000002 683.1949999999999 C 216.086 689.188 205.89100000000002 688.7069999999999 199.90200000000002 682.1289999999999 C 197.848 679.867 196.555 677.1879999999999 196.008 674.3949999999999 L 190.543 650.8009999999998 L 188.031 639.9609999999998 C 172 570.918 161.762 526.82 158.465 492.133 C 145.559 518.4449999999999 135.371 543.438 130.676 567.508 C 129.82799999999997 571.859 129.16 576.1800000000001 128.684 580.4730000000001 C 124.645 617.129 134.887 651.7620000000001 169.602 685.84 C 234.977 747.441 323.082 785.203 420 785.203 z M 410.922 480.102 Z M 620.57 632.777 C 640.316 547.715 650.922 502.05100000000004 650.418 466.8090000000001 C 646.109 465.6170000000001 641.77 464.3950000000001 637.414 463.1170000000001 C 589.25 449.039 538.395 429.168 496.035 391.188 C 463.328 361.852 436.176 322.195 420 266.895 C 403.828 322.195 376.676 361.852 343.96500000000003 391.188 C 301.605 429.17199999999997 250.75000000000003 449.039 202.58600000000004 463.121 C 198.23000000000005 464.395 193.89100000000005 465.621 189.58200000000005 466.813 C 189.07800000000006 502.051 199.68000000000006 547.715 219.43000000000006 632.777 L 221.29700000000005 640.8090000000001 L 242.13300000000004 621.59 C 296.617 571.176 350 521.789 410.922 480.109 C 416.781 476.102 424.82000000000005 476.34 430.46900000000005 481.17199999999997 L 618.473 641.813 Z M 517.477 367.227 C 554.836 400.72999999999996 601.211 418.92999999999995 645.645 431.99199999999996 C 643.809 425.152 641.4259999999999 418.176 638.484 410.80499999999995 C 626.3670000000001 388.05899999999997 614.219 364.31299999999993 603.1990000000001 339.3399999999999 L 600.047 333.41399999999993 C 586.07 307.1449999999999 569.148 275.3519999999999 549.613 236.19499999999994 C 527.816 221.51599999999993 510.66400000000004 209.44499999999994 496.0780000000001 199.17599999999993 C 468.4570000000001 179.73399999999992 450.3980000000001 167.03099999999992 436.5000000000001 161.05899999999994 C 440.2380000000001 264.7729999999999 473.04700000000014 327.3829999999999 517.4770000000001 367.227 z M 322.527 367.227 C 366.961 327.37899999999996 399.77299999999997 264.758 403.5 161.02299999999997 C 389.625 167.01199999999997 371.559 179.72699999999998 343.926 199.17599999999996 C 329.336 209.44499999999996 312.195 221.51199999999994 290.383 236.19899999999996 C 270.852 275.352 253.93399999999997 307.145 239.95299999999997 333.41799999999995 L 236.80499999999998 339.328 C 225.789 364.313 213.63699999999997 388.05899999999997 201.51599999999996 410.816 C 198.56999999999996 418.188 196.19099999999997 425.15599999999995 194.35499999999996 431.996 C 238.78499999999997 418.93 285.164 400.72999999999996 322.52699999999993 367.227 z M 667.7339999999999 397.191 L 681.1479999999999 422.094 C 713.2299999999999 481.336 741.934 534.352 745.7269999999999 585.313 C 762.9879999999998 551.367 775.1049999999999 514.355 781.0389999999999 475.316 C 780.8749999999999 464.219 778.3829999999999 452.83599999999996 773.9649999999999 441.313 C 764.684 417.098 746.887 392.25 724.281 368.082 C 692.281 333.879 650.8629999999999 301.402 609.711 273.816 C 607.2810000000001 272.188 604.855 270.578 602.4300000000001 268.97999999999996 C 612.1020000000001 287.621 620.7230000000001 303.81999999999994 628.422 318.28499999999997 L 631.5550000000001 324.17199999999997 L 632.6800000000001 326.28499999999997 C 648.023 355.15599999999995 659.6020000000001 377.28499999999997 667.734 397.191 z M 211.578 318.289 C 219.27700000000002 303.82 227.895 287.621 237.57 268.98 C 232.87099999999998 272.06600000000003 228.16 275.223 223.453 278.44100000000003 C 184.582 305.004 145.945 335.773 115.71900000000001 368.08200000000005 C 90.51950000000001 395.02000000000004 71.30080000000001 422.809 63.183600000000006 449.62100000000004 C 60.554700000000004 458.30500000000006 59.08590000000001 466.88700000000006 58.96090000000001 475.309 C 64.89450000000001 514.352 77.0117 551.363 94.27340000000001 585.313 C 98.06640000000002 534.352 126.77300000000001 481.336 158.852 422.094 L 172.262 397.211 C 180.395 377.293 191.973 355.156 207.328 326.27 L 208.43800000000002 324.188 z M 269.508 211.457 C 290.781 197.18 309.53499999999997 183.977 325.395 172.82 C 369.859 141.51999999999998 392.566 125.54299999999999 418.352 124.89099999999999 L 420 124.805 C 446.395 124.805 469.137 140.81300000000002 514.613 172.82 C 530.465 183.98 549.2030000000001 197.168 570.484 211.453 C 629.164 245.352 698.504 293.516 747.734 346.14099999999996 C 761.664 361.027 774.0120000000001 376.31999999999994 784.129 391.828 C 782.914 375.883 780.672 360.219 777.4730000000001 344.90599999999995 C 769.859 308.45699999999994 756.8050000000001 274.00399999999996 739.2030000000001 242.43799999999993 C 722.656 212.75 702.09 185.613 678.238 161.766 C 612.156 95.6797 520.848 54.7969 420 54.7969 C 319.156 54.7969 227.848 95.6797 161.76600000000002 161.766 C 137.91400000000002 185.613 117.34400000000002 212.75 100.79700000000003 242.434 C 83.20310000000002 274.004 70.14840000000002 308.457 62.527300000000025 344.902 C 59.32810000000003 360.211 57.089800000000025 375.875 55.87110000000003 391.82399999999996 C 65.9922 376.316 78.3359 361.027 92.2656 346.141 C 141.492 293.52 210.836 245.355 269.508 211.457" stroke-linecap="round" />
</g>
</g>
</g>
<g transform="matrix(1.9211538461538462 0 0 1.9211538461538462 645.5885164264982 543.3801768107664)" id="text-logo"  >
<g style=""  paint-order="stroke"   >
		<g transform="matrix(1 0 0 1 0 0)" id="text-logo-path-0"  >
<path style="stroke: none; stroke-width: 0; stroke-dasharray: none; stroke-linecap: butt; stroke-dashoffset: 0; stroke-linejoin: miter; stroke-miterlimit: 4; fill: rgb(4,24,52); fill-rule: nonzero; opacity: 1;"  paint-order="stroke"  transform=" translate(-258.29, 27.950000000000003)" d="M 22.47 0 L 8.61 0 L 8.61 -55.9 L 21.59 -55.9 Q 28.31 -55.9 31.79 -52.73 Q 35.28 -49.56 35.28 -43.85 L 35.28 -43.85 L 35.28 -38.72 Q 35.28 -31.42 29.15 -29.32 L 29.15 -29.32 Q 36.12 -27.43 36.12 -19.78 L 36.12 -19.78 L 36.12 -12.05 Q 36.12 -6.3 32.68 -3.15 Q 29.23 0 22.47 0 L 22.47 0 Z M 14.62 -27.09 L 14.62 -5.17 L 22.47 -5.17 Q 26.08 -5.17 28.1 -7.18 Q 30.11 -9.2 30.11 -12.05 L 30.11 -12.05 L 30.11 -19.78 Q 30.11 -22.55 28.04 -24.82 Q 25.96 -27.09 22.47 -27.09 L 22.47 -27.09 L 14.62 -27.09 Z M 14.62 -50.74 L 14.62 -31.42 L 21.59 -31.42 Q 25.2 -31.42 27.22 -33.64 Q 29.23 -35.87 29.23 -38.72 L 29.23 -38.72 L 29.23 -43.85 Q 29.23 -46.62 27.22 -48.68 Q 25.2 -50.74 21.59 -50.74 L 21.59 -50.74 L 14.62 -50.74 Z M 84.82 0 L 70.16 0 L 70.16 -5.17 L 74.49 -5.17 L 74.49 -50.74 L 70.16 -50.74 L 70.16 -55.9 L 84.82 -55.9 L 84.82 -50.74 L 80.5 -50.74 L 80.5 -5.17 L 84.82 -5.17 L 84.82 0 Z M 125.29 -50.74 L 114.08 -50.74 L 114.08 -55.9 L 142.47 -55.9 L 142.47 -50.74 L 131.3 -50.74 L 131.3 0 L 125.29 0 L 125.29 -50.74 Z M 188.23 0 L 174.37 0 L 174.37 -55.9 L 187.35 -55.9 Q 194.07 -55.9 197.56 -52.73 Q 201.04 -49.56 201.04 -43.85 L 201.04 -43.85 L 201.04 -38.72 Q 201.04 -31.42 194.91 -29.32 L 194.91 -29.32 Q 201.88 -27.43 201.88 -19.78 L 201.88 -19.78 L 201.88 -12.05 Q 201.88 -6.3 198.44 -3.15 Q 194.99 0 188.23 0 L 188.23 0 Z M 180.38 -27.09 L 180.38 -5.17 L 188.23 -5.17 Q 191.84 -5.17 193.86 -7.18 Q 195.88 -9.2 195.88 -12.05 L 195.88 -12.05 L 195.88 -19.78 Q 195.88 -22.55 193.8 -24.82 Q 191.72 -27.09 188.23 -27.09 L 188.23 -27.09 L 180.38 -27.09 Z M 180.38 -50.74 L 180.38 -31.42 L 187.35 -31.42 Q 190.96 -31.42 192.98 -33.64 Q 194.99 -35.87 194.99 -38.72 L 194.99 -38.72 L 194.99 -43.85 Q 194.99 -46.62 192.98 -48.68 Q 190.96 -50.74 187.35 -50.74 L 187.35 -50.74 L 180.38 -50.74 Z M 237.65 -10.75 L 237.65 -10.75 L 237.65 -55.9 L 243.7 -55.9 L 243.7 -10.75 Q 243.7 -3.86 252.29 -3.86 Q 260.87 -3.86 260.87 -10.75 L 260.87 -10.75 L 260.87 -55.9 L 266.92 -55.9 L 266.92 -10.75 Q 266.92 -5 263.27 -1.85 Q 259.61 1.3 252.33 1.3 Q 245.04 1.3 241.34 -1.85 Q 237.65 -5 237.65 -10.75 Z M 302.65 -10.75 L 302.65 -10.75 L 302.65 -45.15 Q 302.65 -50.9 306.18 -54.05 Q 309.7 -57.2 316.76 -57.2 Q 323.82 -57.2 327.43 -54.05 Q 331.04 -50.9 331.04 -45.15 L 331.04 -45.15 L 331.04 -37 L 325.03 -37 L 325.03 -45.15 Q 325.03 -52.04 316.84 -52.04 Q 308.65 -52.04 308.65 -45.15 L 308.65 -45.15 L 308.65 -10.75 Q 308.65 -3.86 316.84 -3.86 Q 325.03 -3.86 325.03 -10.75 L 325.03 -10.75 L 325.03 -15.5 L 331.04 -15.5 L 331.04 -10.75 Q 331.04 -5 327.51 -1.85 Q 323.98 1.3 316.93 1.3 Q 309.87 1.3 306.26 -1.85 Q 302.65 -5 302.65 -10.75 Z M 372.9 0 L 366.89 0 L 366.89 -55.9 L 372.9 -55.9 L 372.9 -32.17 L 387.89 -55.9 L 394.57 -55.9 L 379.36 -31.84 L 395.62 0 L 388.98 0 L 375.75 -26.08 L 372.9 -21.5 L 372.9 0 Z M 452.01 0 L 426.64 0 L 426.64 -55.9 L 451.12 -55.9 L 451.12 -50.74 L 432.64 -50.74 L 432.64 -30.95 L 447.72 -30.95 L 447.72 -25.79 L 432.64 -25.79 L 432.64 -5.17 L 452.01 -5.17 L 452.01 0 Z M 490.8 -50.74 L 479.58 -50.74 L 479.58 -55.9 L 507.97 -55.9 L 507.97 -50.74 L 496.8 -50.74 L 496.8 0 L 490.8 0 L 490.8 -50.74 Z" stroke-linecap="round" />
</g>
</g>
</g>
<g transform="matrix(1.9211538461538462 0 0 1.9211538461538462 635.7110481964048 690.4993732281478)" id="tagline-bdaf0224-ca96-4d17-94ab-71f96de8a9d9-logo"  >
<g style=""  paint-order="stroke"   >
		<g transform="matrix(1 0 0 1 0 0)" id="tagline-bdaf0224-ca96-4d17-94ab-71f96de8a9d9-logo-path-0"  >
<linearGradient id="SVGID_97198" gradientUnits="userSpaceOnUse" gradientTransform="matrix(1 0 0 1 7.5800000000000125 -50.36)"  x1="0" y1="0" x2="0" y2="86">
<stop offset="0%" style="stop-color:rgb(250,217,97);stop-opacity: 1"/>
<stop offset="100%" style="stop-color:rgb(247,107,28);stop-opacity: 1"/>
</linearGradient>
<path style="stroke: none; stroke-width: 0; stroke-dasharray: none; stroke-linecap: butt; stroke-dashoffset: 0; stroke-linejoin: miter; stroke-miterlimit: 4; fill: url(#SVGID_97198); fill-rule: nonzero; opacity: 1;"  paint-order="stroke"  transform=" translate(-248.51500000000001, 24.605)" d="M 29.91 0 L 7.58 0 L 7.58 -49.21 L 29.13 -49.21 L 29.13 -44.66 L 12.87 -44.66 L 12.87 -27.25 L 26.14 -27.25 L 26.14 -22.7 L 12.87 -22.7 L 12.87 -4.55 L 29.91 -4.55 L 29.91 0 Z M 58.36 -9.46 L 58.36 -9.46 L 58.36 -39.74 Q 58.36 -44.81 61.47 -47.58 Q 64.57 -50.36 70.78 -50.36 Q 77 -50.36 80.18 -47.58 Q 83.35 -44.81 83.35 -39.74 L 83.35 -39.74 L 83.35 -32.57 L 78.07 -32.57 L 78.07 -39.74 Q 78.07 -45.81 70.86 -45.81 Q 63.65 -45.81 63.65 -39.74 L 63.65 -39.74 L 63.65 -9.46 Q 63.65 -3.4 70.86 -3.4 Q 78.07 -3.4 78.07 -9.46 L 78.07 -9.46 L 78.07 -13.64 L 83.35 -13.64 L 83.35 -9.46 Q 83.35 -4.4 80.25 -1.63 Q 77.14 1.15 70.93 1.15 Q 64.72 1.15 61.54 -1.63 Q 58.36 -4.4 58.36 -9.46 Z M 113.69 -9.46 L 113.69 -9.46 L 113.69 -39.74 Q 113.69 -44.81 116.91 -47.58 Q 120.13 -50.36 126.52 -50.36 Q 132.92 -50.36 136.17 -47.58 Q 139.42 -44.81 139.42 -39.74 L 139.42 -39.74 L 139.42 -9.46 Q 139.42 -4.4 136.21 -1.63 Q 132.99 1.15 126.6 1.15 Q 120.2 1.15 116.95 -1.63 Q 113.69 -4.4 113.69 -9.46 Z M 118.98 -39.74 L 118.98 -9.46 Q 118.98 -3.4 126.56 -3.4 Q 134.14 -3.4 134.14 -9.46 L 134.14 -9.46 L 134.14 -39.74 Q 134.14 -45.81 126.56 -45.81 Q 118.98 -45.81 118.98 -39.74 L 118.98 -39.74 Z M 176.97 0 L 171.68 0 L 171.68 -49.21 L 179.63 -49.21 L 188.25 -16.75 L 196.97 -49.21 L 204.92 -49.21 L 204.92 0 L 199.64 0 L 199.64 -40.74 L 190.76 -7.58 L 185.85 -7.58 L 176.97 -40.74 L 176.97 0 Z M 243.58 0 L 238.29 0 L 238.29 -49.21 L 246.24 -49.21 L 254.86 -16.75 L 263.58 -49.21 L 271.53 -49.21 L 271.53 0 L 266.24 0 L 266.24 -40.74 L 257.37 -7.58 L 252.45 -7.58 L 243.58 -40.74 L 243.58 0 Z M 327.23 0 L 304.9 0 L 304.9 -49.21 L 326.45 -49.21 L 326.45 -44.66 L 310.19 -44.66 L 310.19 -27.25 L 323.46 -27.25 L 323.46 -22.7 L 310.19 -22.7 L 310.19 -4.55 L 327.23 -4.55 L 327.23 0 Z M 362.11 0 L 356.83 0 L 356.83 -49.21 L 368.25 -49.21 Q 374.17 -49.21 377.24 -46.42 Q 380.3 -43.63 380.3 -38.6 L 380.3 -38.6 L 380.3 -28.02 Q 380.3 -20.3 373.61 -18.19 L 373.61 -18.19 L 382.93 0 L 377.12 0 L 368.25 -17.41 L 362.11 -17.41 L 362.11 0 Z M 362.11 -44.66 L 362.11 -21.96 L 368.25 -21.96 Q 374.98 -21.96 374.98 -28.02 L 374.98 -28.02 L 374.98 -38.6 Q 374.98 -41.48 373.24 -43.07 Q 371.51 -44.66 368.25 -44.66 L 368.25 -44.66 L 362.11 -44.66 Z M 410.64 -9.46 L 410.64 -9.46 L 410.64 -39.74 Q 410.64 -44.81 413.75 -47.58 Q 416.85 -50.36 423.06 -50.36 Q 429.28 -50.36 432.46 -47.58 Q 435.63 -44.81 435.63 -39.74 L 435.63 -39.74 L 435.63 -32.57 L 430.35 -32.57 L 430.35 -39.74 Q 430.35 -45.81 423.14 -45.81 Q 415.93 -45.81 415.93 -39.74 L 415.93 -39.74 L 415.93 -9.46 Q 415.93 -3.4 423.14 -3.4 Q 430.35 -3.4 430.35 -9.46 L 430.35 -9.46 L 430.35 -13.64 L 435.63 -13.64 L 435.63 -9.46 Q 435.63 -4.4 432.53 -1.63 Q 429.42 1.15 423.21 1.15 Q 417 1.15 413.82 -1.63 Q 410.64 -4.4 410.64 -9.46 Z M 489.45 0 L 467.12 0 L 467.12 -49.21 L 488.67 -49.21 L 488.67 -44.66 L 472.41 -44.66 L 472.41 -27.25 L 485.68 -27.25 L 485.68 -22.7 L 472.41 -22.7 L 472.41 -4.55 L 489.45 -4.55 L 489.45 0 Z" stroke-linecap="round" />
</g>
</g>
</g>
</svg>