<?xml version="1.0" encoding="UTF-8" standalone="no" ?>
<!DOCTYPE svg PUBLIC "-//W3C//DTD SVG 1.1//EN" "http://www.w3.org/Graphics/SVG/1.1/DTD/svg11.dtd">
<svg xmlns="http://www.w3.org/2000/svg" xmlns:xlink="http://www.w3.org/1999/xlink" version="1.1" width="1280" height="1024" viewBox="0 0 1280 1024" xml:space="preserve">
<desc>Created with Fabric.js 4.4.0</desc>
<defs>
</defs>
<g transform="matrix(1 0 0 1 640 512)" id="background-logo"  >
<rect style="stroke: none; stroke-width: 0; stroke-dasharray: none; stroke-linecap: butt; stroke-dashoffset: 0; stroke-linejoin: miter; stroke-miterlimit: 4; fill: rgb(255,255,255); fill-rule: nonzero; opacity: 1;"  paint-order="stroke"  x="-640" y="-512" rx="0" ry="0" width="1280" height="1024" />
</g>
<g transform="matrix(1.9211538461538462 0 0 1.9211538461538462 640 226.14701245446918)" id="logo-logo"  >
<g style=""  paint-order="stroke"   >
		<g transform="matrix(0.24053257427417507 0 0 -0.24053257427417504 0.00005498924326730048 -0.00005498924323887877)"  >
<path style="stroke: none; stroke-width: 1; stroke-dasharray: none; stroke-linecap: butt; stroke-dashoffset: 0; stroke-linejoin: miter; stroke-miterlimit: 4; fill: rgb(217,232,252); fill-rule: evenodd; opacity: 1;"  paint-order="stroke"  transform=" translate(-420.00001499999996, -420.00001499999996)" d="M 420 838.293 C 651.016 838.293 838.293 651.016 838.293 420 C 838.293 188.984 651.016 1.70703 420 1.70703 C 188.984 1.70703 1.70703 188.984 1.70703 420 C 1.70703 651.016 188.984 838.293 420 838.293" stroke-linecap="round" />
</g>
		<g transform="matrix(0.255763922286362 0 0 -0.255763922286362 69.50594314548158 4.138081227847749)"  >
<path style="stroke: none; stroke-width: 1; stroke-dasharray: none; stroke-linecap: butt; stroke-dashoffset: 0; stroke-linejoin: miter; stroke-miterlimit: 4; fill: rgb(17,96,208); fill-rule: evenodd; opacity: 1;"  paint-order="stroke"  transform=" translate(-691.758, -403.8205)" d="M 742.172 535.078 C 738.109 480.48 643.703 339.309 609.059 272.563 C 659.156 305.484 773.492 372.67199999999997 774.457 438.23 C 769.527 470.656 756.512 506.879 742.172 535.078" stroke-linecap="round" />
</g>
		<g transform="matrix(0.255763922286362 0 0 -0.255763922286362 -70.62822244827805 4.138081227847749)"  >
<path style="stroke: none; stroke-width: 1; stroke-dasharray: none; stroke-linecap: butt; stroke-dashoffset: 0; stroke-linejoin: miter; stroke-miterlimit: 4; fill: rgb(17,96,208); fill-rule: evenodd; opacity: 1;"  paint-order="stroke"  transform=" translate(-143.85365000000002, -403.8205)" d="M 93.4414 535.078 C 97.5039 480.48 191.914 339.309 226.551 272.563 C 176.457 305.484 62.1211 372.672 61.1563 438.23 C 66.0859 470.656 79.1016 506.879 93.4414 535.078" stroke-linecap="round" />
</g>
		<g transform="matrix(0.255763922286362 0 0 -0.255763922286362 0.000502618399707444 -48.51872297442961)"  >
<path style="stroke: none; stroke-width: 1; stroke-dasharray: none; stroke-linecap: butt; stroke-dashoffset: 0; stroke-linejoin: miter; stroke-miterlimit: 4; fill: rgb(17,96,208); fill-rule: evenodd; opacity: 1;"  paint-order="stroke"  transform=" translate(-420.0017651653575, -609.701)" d="M 670.555 656.742 C 605.164 718.43 516.996 756.242 419.99999999999994 756.242 C 323.0079999999999 756.242 234.83999999999995 718.43 169.44899999999996 656.742 C 108.33599999999996 596.6329999999999 123.31999999999996 534.805 158.46099999999996 463.164 C 161.75799999999995 497.855 171.99999999999994 541.953 188.03099999999995 611.004 L 196.00799999999995 645.434 C 196.55499999999995 648.23 197.84799999999996 650.91 199.90199999999996 653.168 C 205.89099999999996 659.75 216.08599999999996 660.227 222.66399999999996 654.238 C 232.42599999999996 645.3710000000001 248.23399999999995 630.7460000000001 263.94899999999996 616.2070000000001 C 314.29299999999995 569.6250000000001 363.67999999999995 523.9340000000001 419.00399999999996 484.7660000000001 L 617.324 654.219 C 619.309 656.0390000000001 621.7769999999999 657.379 624.5859999999999 658.023 C 633.2579999999999 660.004 641.8979999999999 654.586 643.8789999999999 645.914 L 651.9689999999999 611.008 C 668 541.953 678.242 497.852 681.539 463.16 C 716.684 534.8050000000001 731.668 596.633 670.555 656.742" stroke-linecap="round" />
</g>
		<g transform="matrix(0.255763922286362 0 0 -0.255763922286362 0.00005115278440825932 -45.402111699409204)"  >
<path style="stroke: none; stroke-width: 1; stroke-dasharray: none; stroke-linecap: butt; stroke-dashoffset: 0; stroke-linejoin: miter; stroke-miterlimit: 4; fill: rgb(38,121,237); fill-rule: evenodd; opacity: 1;"  paint-order="stroke"  transform=" translate(-420, -597.5155000000001)" d="M 128.441 553.848 C 131.141 525.0939999999999 142.793 495.10499999999996 158.461 463.164 C 161.758 497.855 172 541.953 188.031 611.004 L 196.008 645.434 C 196.555 648.23 197.848 650.91 199.90200000000002 653.168 C 205.89100000000002 659.75 216.086 660.227 222.66400000000002 654.238 C 232.42600000000002 645.3710000000001 248.234 630.7460000000001 263.949 616.2070000000001 C 314.293 569.6250000000001 363.68 523.9340000000001 419.004 484.7660000000001 L 617.3240000000001 654.219 C 619.3090000000001 656.0390000000001 621.777 657.379 624.586 658.023 C 633.258 660.004 641.898 654.586 643.879 645.914 L 651.969 611.008 C 668 541.953 678.242 497.852 681.539 463.16 C 697.207 495.10200000000003 708.8629999999999 525.09 711.559 553.8480000000001 C 708.852 580.754 696.637 606.719 670.555 632.3670000000001 C 605.164 694.0550000000001 516.996 731.8710000000001 419.99999999999994 731.8710000000001 C 323.0079999999999 731.8710000000001 234.83999999999995 694.0550000000001 169.44899999999996 632.3670000000001 C 143.37099999999995 606.719 131.15599999999995 580.7540000000001 128.44099999999995 553.8480000000001" stroke-linecap="round" />
</g>
		<g transform="matrix(0.255763922286362 0 0 -0.255763922286362 0.00001278819604522141 43.49574972825559)"  >
<path style="stroke: none; stroke-width: 1; stroke-dasharray: none; stroke-linecap: butt; stroke-dashoffset: 0; stroke-linejoin: miter; stroke-miterlimit: 4; fill: rgb(17,96,208); fill-rule: evenodd; opacity: 1;"  paint-order="stroke"  transform=" translate(-419.99985000000004, -249.9377)" d="M 62.625 396.598 C 73 382.168 85.1992 368.703 98.1602 356.129 C 146.488 309.234 212.426 267.285 273.469 235.262 C 273.613 235.188 273.754 235.113 273.89799999999997 235.035 L 274.094 234.93 L 274.289 234.81300000000002 C 293.04699999999997 223.359 311.551 211.609 330.03499999999997 199.80100000000002 C 346.22999999999996 189.453 363 178.30900000000003 380.17199999999997 169.371 C 390.72299999999996 163.87900000000002 402.13699999999994 158.977 414.383 157.859 C 415.781 157.734 417.18399999999997 157.656 418.59 157.621 L 418.887 157.61700000000002 L 419.18 157.59000000000003 C 419.45300000000003 157.56600000000003 419.72700000000003 157.55500000000004 420 157.55500000000004 C 421.816 157.55500000000004 423.633 157.63300000000004 425.441 157.79300000000003 C 437.695 158.87900000000005 449.125 163.78500000000003 459.67199999999997 169.27300000000002 C 476.89799999999997 178.23400000000004 493.72299999999996 189.42200000000003 509.96899999999994 199.80100000000002 C 528.453 211.609 546.9609999999999 223.359 565.914 234.91400000000002 L 566.172 235.074 L 566.441 235.215 C 627.5120000000001 267.238 693.4920000000001 309.219 741.84 356.129 C 754.801 368.70300000000003 767 382.172 777.379 396.60200000000003 L 794.57 420.516 L 792.176 392.03900000000004 C 785.391 311.277 747.02 235.848 683.941 178.598 C 613.719 114.855 519.328 79.3594 420 79.3594 C 320.676 79.3594 226.281 114.855 156.059 178.598 C 92.9844 235.848 54.6133 311.273 47.8242 392.035 L 45.4297 420.50800000000004 L 62.625 396.598" stroke-linecap="round" />
</g>
		<g transform="matrix(0.255763922286362 0 0 -0.255763922286362 0.0005371042367983137 56.465308039866954)"  >
<path style="stroke: none; stroke-width: 1; stroke-dasharray: none; stroke-linecap: butt; stroke-dashoffset: 0; stroke-linejoin: miter; stroke-miterlimit: 4; fill: rgb(38,121,237); fill-rule: evenodd; opacity: 1;"  paint-order="stroke"  transform=" translate(-420.0019, -199.22859999999997)" d="M 789.41 361.508 C 765.023 160.027 588.777 36.9492 420 36.9492 C 198.117 36.9492 75.1211 207.789 50.5938 361.496 L 62.625 344.77 C 73 330.344 85.1992 316.875 98.1602 304.301 C 146.488 257.41 212.426 215.453 273.469 183.434 C 273.613 183.359 273.754 183.289 273.89799999999997 183.21099999999998 L 274.094 183.10199999999998 L 274.289 182.98799999999997 C 293.04699999999997 171.53099999999998 311.551 159.78099999999998 330.03499999999997 147.96899999999997 C 346.22999999999996 137.62499999999997 363 126.47999999999996 380.17199999999997 117.54299999999996 C 390.72299999999996 112.05099999999996 402.13699999999994 107.15199999999996 414.383 106.03099999999996 C 415.781 105.90599999999996 417.18399999999997 105.82799999999996 418.59 105.79299999999996 L 418.887 105.78899999999996 L 419.18 105.76199999999996 C 419.45300000000003 105.73799999999996 419.72700000000003 105.72699999999996 420 105.72699999999996 C 421.816 105.72699999999996 423.633 105.80499999999996 425.441 105.96499999999996 C 437.695 107.05099999999996 449.125 111.95699999999997 459.67199999999997 117.44499999999996 C 476.89799999999997 126.40599999999996 493.72299999999996 137.59399999999997 509.96899999999994 147.96899999999997 C 528.453 159.78099999999998 546.9609999999999 171.53099999999998 565.914 183.08599999999996 L 566.172 183.24599999999995 L 566.441 183.38699999999994 C 627.5120000000001 215.41399999999993 693.4920000000001 257.3949999999999 741.84 304.30099999999993 C 754.801 316.8789999999999 767 330.34399999999994 777.379 344.7729999999999 L 789.41 361.5079999999999" stroke-linecap="round" />
</g>
		<g transform="matrix(0.255763922286362 0 0 -0.255763922286362 -0.00000717061072919023 -7.000053941839866)"  >
<path style="stroke: none; stroke-width: 1; stroke-dasharray: none; stroke-linecap: butt; stroke-dashoffset: 0; stroke-linejoin: miter; stroke-miterlimit: 4; fill: rgb(17,96,208); fill-rule: evenodd; opacity: 1;"  paint-order="stroke"  transform=" translate(-419.9997719639475, -447.369)" d="M 425.258 487.281 L 425.39099999999996 487.461 L 426.152 488.098 C 426.777 488.62100000000004 427.395 489.156 428.01599999999996 489.69100000000003 C 428.09 489.754 428.16799999999995 489.82000000000005 428.164 489.81600000000003 L 623.328 656.5740000000001 L 628.43 634.6020000000001 C 636.281 600.7810000000001 644.5 566.7270000000001 651.012 532.6250000000001 C 655.1049999999999 511.2230000000001 658.7969999999999 488.5430000000001 658.4879999999999 466.6950000000001 L 658.3979999999999 460.6450000000001 L 652.5659999999999 459.0310000000001 C 597.48 443.832 544.633 423.922 501.426 385.176 C 464.891 352.418 441.461 311.531 427.746 264.641 L 420 238.164 L 412.254 264.64099999999996 C 398.543 311.53099999999995 375.10900000000004 352.41799999999995 338.57800000000003 385.17599999999993 C 295.367 423.92599999999993 242.51600000000002 443.83199999999994 187.43000000000004 459.03099999999995 L 181.59800000000004 460.6449999999999 L 181.51200000000003 466.6989999999999 C 181.19900000000004 488.5429999999999 184.89100000000002 511.2229999999999 188.98400000000004 532.6249999999999 C 195.50000000000003 566.7229999999998 203.71500000000003 600.781 211.57000000000005 634.6019999999999 L 216.57000000000005 656.1449999999999 L 247.60500000000005 627.5199999999999 C 301.06300000000005 578.1989999999998 354.47300000000007 528.6289999999999 414.586 487.3749999999999 L 414.809 487.2229999999999 L 415.016 487.0589999999999 C 416.445 485.9299999999999 418.17600000000004 485.33199999999994 420 485.33199999999994 C 421.949 485.33199999999994 423.797 486.0199999999999 425.258 487.28099999999995" stroke-linecap="round" />
</g>
		<g transform="matrix(0.255763922286362 0 0 -0.255763922286362 0.00005115278440825932 -1.2848812163899481)"  >
<path style="stroke: none; stroke-width: 1; stroke-dasharray: none; stroke-linecap: butt; stroke-dashoffset: 0; stroke-linejoin: miter; stroke-miterlimit: 4; fill: rgb(38,121,237); fill-rule: evenodd; opacity: 1;"  paint-order="stroke"  transform=" translate(-420, -425.0235)" d="M 638.172 454.926 C 588.313 440.207 540.855 420.535 501.426 385.176 C 464.891 352.418 441.461 311.531 427.746 264.641 L 420 238.164 L 412.254 264.64099999999996 C 398.543 311.53099999999995 375.10900000000004 352.41799999999995 338.57800000000003 385.17599999999993 C 299.148 420.53899999999993 251.68800000000005 440.20699999999994 201.82800000000003 454.92999999999995 C 202.93000000000004 469.477 205.43000000000004 484.13699999999994 208.11700000000002 498.19899999999996 C 214.09000000000003 529.473 221.62900000000002 560.711 228.83200000000002 591.73 L 233.41800000000003 611.492 L 261.88300000000004 585.2339999999999 C 310.91 539.9959999999999 359.90200000000004 494.5349999999999 415.035 456.69499999999994 L 415.238 456.55499999999995 L 415.43 456.40599999999995 C 416.738 455.3709999999999 418.332 454.82399999999996 420.004 454.82399999999996 C 421.78900000000004 454.82399999999996 423.48400000000004 455.453 424.824 456.60499999999996 L 424.945 456.77299999999997 L 425.645 457.359 C 426.219 457.84 426.78499999999997 458.328 427.352 458.82 C 427.42199999999997 458.879 427.49199999999996 458.938 427.488 458.93399999999997 L 606.496 611.883 L 611.1759999999999 591.73 C 618.3749999999999 560.711 625.91 529.477 631.887 498.199 C 634.574 484.137 637.0699999999999 469.47700000000003 638.1719999999999 454.926" stroke-linecap="round" />
</g>
		<g transform="matrix(0.255763922286362 0 0 -0.255763922286362 0 0)"  >
<path style="stroke: none; stroke-width: 1; stroke-dasharray: none; stroke-linecap: butt; stroke-dashoffset: 0; stroke-linejoin: miter; stroke-miterlimit: 4; fill: rgb(4,24,52); fill-rule: evenodd; opacity: 1;"  paint-order="stroke"  transform=" translate(-419.99980000000005, -419.99980000000005)" d="M 701.063 701.063 C 629.137 772.992 529.762 817.484 420 817.484 C 310.238 817.484 210.867 772.992 138.938 701.063 C 80.2266 642.355 39.8047 565.363 26.9258 479.359 L 26.7734 478.32 C 23.9727 459.285 22.5156 439.813 22.5156 420 C 22.5156 310.238 67.0117 210.867 138.938 138.938 C 210.867 67.0117 310.238 22.5156 420 22.5156 C 529.762 22.5156 629.137 67.01169999999999 701.063 138.938 C 772.992 210.867 817.484 310.238 817.484 420 C 817.484 439.836 816.023 459.332 813.219 478.387 L 813.094 479.273 C 800.227 565.309 759.793 642.34 701.063 701.063 Z M 420 785.203 C 516.836 785.203 604.867 747.5079999999999 670.227 686.004 C 705.074 651.875 715.355 617.1990000000001 711.316 580.488 C 710.844 576.191 710.176 571.8670000000001 709.328 567.5160000000001 C 704.6329999999999 543.445 694.4449999999999 518.4490000000001 681.539 492.1290000000001 C 678.242 526.82 668 570.922 651.9689999999999 639.9650000000001 L 649.457 650.8010000000002 L 643.879 674.8750000000001 C 641.898 683.5470000000001 633.258 688.9650000000001 624.586 686.9800000000001 C 621.777 686.3360000000001 619.309 684.9960000000001 617.3240000000001 683.1760000000002 L 611.156 677.91 L 419.004 513.727 C 363.68 552.895 314.293 598.586 263.949 645.164 C 251.121 657.035 238.227 668.961 228.61700000000002 677.766 C 226.45300000000003 679.746 224.45700000000002 681.5699999999999 222.66400000000002 683.1949999999999 C 216.086 689.188 205.89100000000002 688.7069999999999 199.90200000000002 682.1289999999999 C 197.848 679.867 196.555 677.1879999999999 196.008 674.3949999999999 L 190.543 650.8009999999998 L 188.031 639.9609999999998 C 172 570.918 161.762 526.82 158.465 492.133 C 145.559 518.4449999999999 135.371 543.438 130.676 567.508 C 129.82799999999997 571.859 129.16 576.1800000000001 128.684 580.4730000000001 C 124.645 617.129 134.887 651.7620000000001 169.602 685.84 C 234.977 747.441 323.082 785.203 420 785.203 z M 410.922 480.102 Z M 620.57 632.777 C 640.316 547.715 650.922 502.05100000000004 650.418 466.8090000000001 C 646.109 465.6170000000001 641.77 464.3950000000001 637.414 463.1170000000001 C 589.25 449.039 538.395 429.168 496.035 391.188 C 463.328 361.852 436.176 322.195 420 266.895 C 403.828 322.195 376.676 361.852 343.96500000000003 391.188 C 301.605 429.17199999999997 250.75000000000003 449.039 202.58600000000004 463.121 C 198.23000000000005 464.395 193.89100000000005 465.621 189.58200000000005 466.813 C 189.07800000000006 502.051 199.68000000000006 547.715 219.43000000000006 632.777 L 221.29700000000005 640.8090000000001 L 242.13300000000004 621.59 C 296.617 571.176 350 521.789 410.922 480.109 C 416.781 476.102 424.82000000000005 476.34 430.46900000000005 481.17199999999997 L 618.473 641.813 Z M 517.477 367.227 C 554.836 400.72999999999996 601.211 418.92999999999995 645.645 431.99199999999996 C 643.809 425.152 641.4259999999999 418.176 638.484 410.80499999999995 C 626.3670000000001 388.05899999999997 614.219 364.31299999999993 603.1990000000001 339.3399999999999 L 600.047 333.41399999999993 C 586.07 307.1449999999999 569.148 275.3519999999999 549.613 236.19499999999994 C 527.816 221.51599999999993 510.66400000000004 209.44499999999994 496.0780000000001 199.17599999999993 C 468.4570000000001 179.73399999999992 450.3980000000001 167.03099999999992 436.5000000000001 161.05899999999994 C 440.2380000000001 264.7729999999999 473.04700000000014 327.3829999999999 517.4770000000001 367.227 z M 322.527 367.227 C 366.961 327.37899999999996 399.77299999999997 264.758 403.5 161.02299999999997 C 389.625 167.01199999999997 371.559 179.72699999999998 343.926 199.17599999999996 C 329.336 209.44499999999996 312.195 221.51199999999994 290.383 236.19899999999996 C 270.852 275.352 253.93399999999997 307.145 239.95299999999997 333.41799999999995 L 236.80499999999998 339.328 C 225.789 364.313 213.63699999999997 388.05899999999997 201.51599999999996 410.816 C 198.56999999999996 418.188 196.19099999999997 425.15599999999995 194.35499999999996 431.996 C 238.78499999999997 418.93 285.164 400.72999999999996 322.52699999999993 367.227 z M 667.7339999999999 397.191 L 681.1479999999999 422.094 C 713.2299999999999 481.336 741.934 534.352 745.7269999999999 585.313 C 762.9879999999998 551.367 775.1049999999999 514.355 781.0389999999999 475.316 C 780.8749999999999 464.219 778.3829999999999 452.83599999999996 773.9649999999999 441.313 C 764.684 417.098 746.887 392.25 724.281 368.082 C 692.281 333.879 650.8629999999999 301.402 609.711 273.816 C 607.2810000000001 272.188 604.855 270.578 602.4300000000001 268.97999999999996 C 612.1020000000001 287.621 620.7230000000001 303.81999999999994 628.422 318.28499999999997 L 631.5550000000001 324.17199999999997 L 632.6800000000001 326.28499999999997 C 648.023 355.15599999999995 659.6020000000001 377.28499999999997 667.734 397.191 z M 211.578 318.289 C 219.27700000000002 303.82 227.895 287.621 237.57 268.98 C 232.87099999999998 272.06600000000003 228.16 275.223 223.453 278.44100000000003 C 184.582 305.004 145.945 335.773 115.71900000000001 368.08200000000005 C 90.51950000000001 395.02000000000004 71.30080000000001 422.809 63.183600000000006 449.62100000000004 C 60.554700000000004 458.30500000000006 59.08590000000001 466.88700000000006 58.96090000000001 475.309 C 64.89450000000001 514.352 77.0117 551.363 94.27340000000001 585.313 C 98.06640000000002 534.352 126.77300000000001 481.336 158.852 422.094 L 172.262 397.211 C 180.395 377.293 191.973 355.156 207.328 326.27 L 208.43800000000002 324.188 z M 269.508 211.457 C 290.781 197.18 309.53499999999997 183.977 325.395 172.82 C 369.859 141.51999999999998 392.566 125.54299999999999 418.352 124.89099999999999 L 420 124.805 C 446.395 124.805 469.137 140.81300000000002 514.613 172.82 C 530.465 183.98 549.2030000000001 197.168 570.484 211.453 C 629.164 245.352 698.504 293.516 747.734 346.14099999999996 C 761.664 361.027 774.0120000000001 376.31999999999994 784.129 391.828 C 782.914 375.883 780.672 360.219 777.4730000000001 344.90599999999995 C 769.859 308.45699999999994 756.8050000000001 274.00399999999996 739.2030000000001 242.43799999999993 C 722.656 212.75 702.09 185.613 678.238 161.766 C 612.156 95.6797 520.848 54.7969 420 54.7969 C 319.156 54.7969 227.848 95.6797 161.76600000000002 161.766 C 137.91400000000002 185.613 117.34400000000002 212.75 100.79700000000003 242.434 C 83.20310000000002 274.004 70.14840000000002 308.457 62.527300000000025 344.902 C 59.32810000000003 360.211 57.089800000000025 375.875 55.87110000000003 391.82399999999996 C 65.9922 376.316 78.3359 361.027 92.2656 346.141 C 141.492 293.52 210.836 245.355 269.508 211.457" stroke-linecap="round" />
</g>
</g>
</g>
<g transform="matrix(1.9211538461538462 0 0 1.9211538461538462 646.936416015625 542.0339595446131)" id="text-logo"  >
<g style=""  paint-order="stroke"   >
		<g transform="matrix(1 0 0 1 0 0)" id="text-logo-path-0"  >
<path style="stroke: rgb(15,60,124); stroke-width: 9; stroke-dasharray: none; stroke-linecap: butt; stroke-dashoffset: 0; stroke-linejoin: miter; stroke-miterlimit: 4; fill: rgb(4,24,52); fill-rule: nonzero; opacity: 1;"  paint-order="stroke"  transform=" translate(-310.56500000000005, 33.795)" d="M 27.17 0 L 10.41 0 L 10.41 -67.59 L 26.1 -67.59 Q 34.23 -67.59 38.44 -63.76 Q 42.66 -59.92 42.66 -53.02 L 42.66 -53.02 L 42.66 -46.82 Q 42.66 -37.98 35.24 -35.45 L 35.24 -35.45 Q 43.67 -33.16 43.67 -23.92 L 43.67 -23.92 L 43.67 -14.57 Q 43.67 -7.62 39.51 -3.81 Q 35.34 0 27.17 0 L 27.17 0 Z M 17.67 -32.75 L 17.67 -6.25 L 27.17 -6.25 Q 31.54 -6.25 33.97 -8.68 Q 36.41 -11.12 36.41 -14.57 L 36.41 -14.57 L 36.41 -23.92 Q 36.41 -27.27 33.9 -30.01 Q 31.38 -32.75 27.17 -32.75 L 27.17 -32.75 L 17.67 -32.75 Z M 17.67 -61.34 L 17.67 -37.98 L 26.1 -37.98 Q 30.47 -37.98 32.91 -40.68 Q 35.34 -43.37 35.34 -46.82 L 35.34 -46.82 L 35.34 -53.02 Q 35.34 -56.37 32.91 -58.86 Q 30.47 -61.34 26.1 -61.34 L 26.1 -61.34 L 17.67 -61.34 Z M 102.56 0 L 84.83 0 L 84.83 -6.25 L 90.06 -6.25 L 90.06 -61.34 L 84.83 -61.34 L 84.83 -67.59 L 102.56 -67.59 L 102.56 -61.34 L 97.33 -61.34 L 97.33 -6.25 L 102.56 -6.25 L 102.56 0 Z M 151.49 -61.34 L 137.93 -61.34 L 137.93 -67.59 L 172.26 -67.59 L 172.26 -61.34 L 158.75 -61.34 L 158.75 0 L 151.49 0 L 151.49 -61.34 Z M 227.59 0 L 210.83 0 L 210.83 -67.59 L 226.52 -67.59 Q 234.65 -67.59 238.86 -63.76 Q 243.07 -59.92 243.07 -53.02 L 243.07 -53.02 L 243.07 -46.82 Q 243.07 -37.98 235.66 -35.45 L 235.66 -35.45 Q 244.09 -33.16 244.09 -23.92 L 244.09 -23.92 L 244.09 -14.57 Q 244.09 -7.62 239.93 -3.81 Q 235.76 0 227.59 0 L 227.59 0 Z M 218.09 -32.75 L 218.09 -6.25 L 227.59 -6.25 Q 231.95 -6.25 234.39 -8.68 Q 236.83 -11.12 236.83 -14.57 L 236.83 -14.57 L 236.83 -23.92 Q 236.83 -27.27 234.32 -30.01 Q 231.8 -32.75 227.59 -32.75 L 227.59 -32.75 L 218.09 -32.75 Z M 218.09 -61.34 L 218.09 -37.98 L 226.52 -37.98 Q 230.89 -37.98 233.32 -40.68 Q 235.76 -43.37 235.76 -46.82 L 235.76 -46.82 L 235.76 -53.02 Q 235.76 -56.37 233.32 -58.86 Q 230.89 -61.34 226.52 -61.34 L 226.52 -61.34 L 218.09 -61.34 Z M 289.42 0 L 282.15 0 L 297.44 -67.59 L 308.36 -67.59 L 323.64 0 L 316.38 0 L 312.83 -15.59 L 292.97 -15.59 L 289.42 0 Z M 302.82 -59.46 L 294.34 -21.84 L 311.35 -21.84 L 302.82 -59.46 Z M 361.15 -13 L 361.15 -13 L 361.15 -21.84 L 368.41 -21.84 L 368.41 -12.59 Q 368.41 -8.84 371.03 -6.75 Q 373.64 -4.67 378.72 -4.67 Q 383.8 -4.67 386.41 -6.75 Q 389.03 -8.84 389.03 -12.42 Q 389.03 -16 388.24 -18.13 Q 387.45 -20.26 385.07 -22.65 L 385.07 -22.65 L 366.73 -40.57 Q 363.53 -43.77 362.34 -46.85 Q 361.15 -49.92 361.15 -54.59 L 361.15 -54.59 Q 361.15 -61.55 365.46 -65.36 Q 369.78 -69.16 378.52 -69.16 L 378.52 -69.16 Q 395.27 -69.16 395.27 -54.59 L 395.27 -54.59 L 395.27 -45.75 L 387.96 -45.75 L 387.96 -55 Q 387.96 -58.75 385.52 -60.84 Q 383.09 -62.92 378.19 -62.92 Q 373.28 -62.92 370.85 -60.84 Q 368.41 -58.75 368.41 -55.12 Q 368.41 -51.49 369.15 -49.41 Q 369.88 -47.33 372.37 -45.04 L 372.37 -45.04 L 391.01 -27.17 Q 394 -23.82 395.15 -20.74 Q 396.29 -17.67 396.29 -13 L 396.29 -13 Q 396.29 1.57 378.72 1.57 Q 361.15 1.57 361.15 -13 Z M 447.4 0 L 440.14 0 L 440.14 -67.59 L 447.4 -67.59 L 447.4 -38.9 L 465.53 -67.59 L 473.61 -67.59 L 455.22 -38.49 L 474.88 0 L 466.85 0 L 450.86 -31.54 L 447.4 -26 L 447.4 0 Z M 543.05 0 L 512.38 0 L 512.38 -67.59 L 541.99 -67.59 L 541.99 -61.34 L 519.64 -61.34 L 519.64 -37.43 L 537.87 -37.43 L 537.87 -31.18 L 519.64 -31.18 L 519.64 -6.25 L 543.05 -6.25 L 543.05 0 Z M 589.95 -61.34 L 576.39 -61.34 L 576.39 -67.59 L 610.72 -67.59 L 610.72 -61.34 L 597.22 -61.34 L 597.22 0 L 589.95 0 L 589.95 -61.34 Z" stroke-linecap="round" />
</g>
</g>
</g>
<g transform="matrix(1.9211538461538462 0 0 1.9211538461538462 640.6223946578452 734.0307879674887)" id="tagline-bdaf0224-ca96-4d17-94ab-71f96de8a9d9-logo"  >
<g style=""  paint-order="stroke"   >
		<g transform="matrix(1 0 0 1 0 0)" id="tagline-bdaf0224-ca96-4d17-94ab-71f96de8a9d9-logo-path-0"  >
<linearGradient id="SVGID_367433" gradientUnits="userSpaceOnUse" gradientTransform="matrix(1 0 0 1 8.889999999999986 -59.84)"  x1="0" y1="0" x2="0" y2="99">
<stop offset="0%" style="stop-color:rgb(250,217,97);stop-opacity: 1"/>
<stop offset="100%" style="stop-color:rgb(247,107,28);stop-opacity: 1"/>
</linearGradient>
<path style="stroke: rgb(244,181,98); stroke-width: 9; stroke-dasharray: none; stroke-linecap: butt; stroke-dashoffset: 0; stroke-linejoin: miter; stroke-miterlimit: 4; fill: url(#SVGID_367433); fill-rule: nonzero; opacity: 1;"  paint-order="stroke"  transform=" translate(-313.5, 26.665)" d="M 22 2.11 Q 20.06 2.02 18.39 1.14 Q 16.72 0.26 14.61 -1.41 L 14.61 -1.41 L 12.85 -2.64 Q 11.26 -4.22 10.43 -5.94 Q 9.59 -7.66 9.06 -10.38 L 9.06 -10.38 Q 8.89 -11.44 8.89 -12.23 L 8.89 -12.23 Q 8.89 -14.78 9.77 -18.26 Q 10.65 -21.74 11.7 -23.94 L 11.7 -23.94 Q 13.64 -28.6 20.24 -38.9 L 20.24 -38.9 Q 20.59 -39.25 20.72 -39.38 Q 20.86 -39.51 20.81 -39.56 Q 20.77 -39.6 20.77 -39.6 L 20.77 -39.6 Q 20.77 -40.22 23.32 -45.06 L 23.32 -45.06 Q 24.82 -46.64 24.82 -47.78 L 24.82 -47.78 Q 24.82 -48.4 24.55 -48.75 L 24.55 -48.75 Q 24.2 -49.19 26.18 -50.91 Q 28.16 -52.62 31.15 -54.3 L 31.15 -54.3 Q 33.53 -56.14 35.82 -56.14 L 35.82 -56.14 Q 36.52 -56.14 37 -55.92 Q 37.49 -55.7 37.58 -55.26 L 37.58 -55.26 Q 37.58 -54.74 41.1 -55.62 L 41.1 -55.62 Q 42.68 -55.97 43.38 -56.06 L 43.38 -56.06 Q 43.74 -56.5 45.19 -56.8 Q 46.64 -57.11 49.28 -57.46 L 49.28 -57.46 Q 50.69 -57.38 52.18 -57.46 Q 53.68 -57.55 54.12 -57.64 L 54.12 -57.64 Q 54.82 -57.9 55.66 -57.42 Q 56.5 -56.94 57.11 -55.53 L 57.11 -55.53 Q 57.38 -54.91 57.38 -54.38 L 57.38 -54.38 Q 57.38 -53.42 56.19 -52.84 Q 55 -52.27 52.1 -51.92 L 52.1 -51.92 Q 49.19 -51.57 48.49 -51.48 L 48.49 -51.48 Q 43.65 -50.95 38.28 -49.81 L 38.28 -49.81 Q 34.85 -49.1 33.31 -48.05 Q 31.77 -46.99 29.83 -44 L 29.83 -44 Q 29.22 -43.56 28.25 -41.76 Q 27.28 -39.95 26.31 -38.02 L 26.31 -38.02 Q 26.05 -37.66 25.7 -37.14 Q 25.34 -36.61 24.82 -35.99 L 24.82 -35.99 Q 22.26 -32.56 21.3 -31.02 Q 20.33 -29.48 20.59 -29.13 L 20.59 -29.13 Q 20.86 -29.04 21.6 -28.86 Q 22.35 -28.69 22.88 -28.6 L 22.88 -28.6 Q 23.67 -29.04 25.08 -29.22 Q 26.49 -29.39 27.1 -29.57 L 27.1 -29.57 Q 41.1 -33.18 42.94 -33.44 L 42.94 -33.44 Q 43.74 -33.97 44.44 -33.97 L 44.44 -33.97 Q 46.02 -33.97 47.26 -31.86 L 47.26 -31.86 Q 47.52 -31.33 47.52 -30.89 L 47.52 -30.89 Q 47.52 -30.1 46.29 -29.39 Q 45.06 -28.69 41.62 -27.68 Q 38.19 -26.66 33.35 -25.34 L 33.35 -25.34 L 30.54 -24.55 Q 24.82 -22.88 21.65 -22.88 L 21.65 -22.88 Q 18.92 -22.88 19.01 -24.38 L 19.01 -24.38 Q 18.13 -24.82 17.03 -22.44 Q 15.93 -20.06 15.14 -16.59 Q 14.34 -13.11 14.34 -10.74 L 14.34 -10.74 Q 14.34 -9.5 14.61 -8.8 L 14.61 -8.8 Q 15.4 -6.6 16.59 -5.46 Q 17.78 -4.31 20.59 -3.52 L 20.59 -3.52 Q 21.21 -3.43 22.13 -3.34 Q 23.06 -3.26 24.29 -3.26 L 24.29 -3.26 Q 26.05 -3.26 27.81 -3.96 L 27.81 -3.96 Q 32.3 -4.75 35.51 -5.72 Q 38.72 -6.69 39.42 -7.13 L 39.42 -7.13 Q 39.95 -7.39 40.3 -7.48 Q 40.66 -7.57 41.01 -7.57 L 41.01 -7.57 L 40.92 -7.39 Q 40.92 -7.39 40.92 -7.35 Q 40.92 -7.3 41.01 -7.3 L 41.01 -7.3 Q 41.27 -7.3 42.59 -8.8 L 42.59 -8.8 Q 44.09 -10.03 46.68 -11.18 Q 49.28 -12.32 49.37 -11.7 L 49.37 -11.7 Q 49.54 -11.18 49.54 -10.82 L 49.54 -10.82 Q 49.54 -9.15 47.48 -6.82 Q 45.41 -4.49 41.89 -2.46 L 41.89 -2.46 Q 37.58 -0.18 32.25 0.92 Q 26.93 2.02 22 2.11 L 22 2.11 Z M 88.26 4.93 Q 85.54 3.96 83.82 2.73 Q 82.1 1.5 80.96 -1.32 L 80.96 -1.32 Q 79.55 -5.28 79.55 -10.65 L 79.55 -10.65 Q 79.55 -15.84 80.17 -19.49 Q 80.78 -23.14 82.28 -26.93 L 82.28 -26.93 L 83.07 -28.78 Q 84.48 -32.38 85.1 -33.53 L 85.1 -33.53 Q 86.59 -36.96 90.38 -42.42 L 90.38 -42.42 Q 93.72 -47.52 95.66 -49.85 Q 97.59 -52.18 99.4 -53.59 Q 101.2 -55 106.04 -58.34 L 106.04 -58.34 Q 108.06 -59.84 110.7 -59.84 L 110.7 -59.84 Q 112.9 -59.84 114.8 -58.74 Q 116.69 -57.64 117.66 -55.62 L 117.66 -55.62 Q 118.62 -53.94 118.62 -51.13 L 118.62 -51.13 Q 118.62 -47.17 116.86 -42.86 Q 115.1 -38.54 112.38 -36.08 L 112.38 -36.08 Q 111.5 -35.29 110.7 -35.29 L 110.7 -35.29 Q 109.74 -35.29 108.15 -36.7 L 108.15 -36.7 Q 107.36 -38.19 107.27 -38.46 Q 107.18 -38.72 107.62 -38.81 L 107.62 -38.81 Q 108.42 -39.78 109.96 -42.55 Q 111.5 -45.32 112.02 -46.9 L 112.02 -46.9 Q 112.2 -47.43 112.38 -48.66 L 112.38 -48.66 Q 113.08 -51.74 113.08 -52.8 L 113.08 -52.8 Q 113.08 -53.86 112.46 -54.47 L 112.46 -54.47 Q 112.2 -54.74 111.76 -54.74 L 111.76 -54.74 Q 111.06 -54.74 109.3 -53.86 L 109.3 -53.86 Q 107.18 -52.98 103.93 -49.9 Q 100.67 -46.82 98.03 -43.21 L 98.03 -43.21 Q 93.98 -37.93 91.83 -34.5 Q 89.67 -31.06 88.53 -27.54 L 88.53 -27.54 L 87.56 -25.26 Q 87.65 -24.9 87.3 -23.5 Q 86.94 -22.09 86.5 -21.21 L 86.5 -21.21 Q 85.27 -16.1 85.27 -11.09 L 85.27 -11.09 Q 85.27 -7.3 85.93 -4.4 Q 86.59 -1.5 87.82 -0.44 L 87.82 -0.44 Q 88.53 0.18 89.94 0.18 L 89.94 0.18 Q 91.7 0.18 94.29 -0.7 Q 96.89 -1.58 100.67 -3.26 L 100.67 -3.26 Q 102.7 -4.05 104.5 -5.1 Q 106.3 -6.16 107.18 -7.04 L 107.18 -7.04 Q 109.47 -8.71 110.88 -8.71 L 110.88 -8.71 Q 111.85 -9.06 112.2 -9.06 L 112.2 -9.06 Q 112.38 -9.06 112.42 -8.84 Q 112.46 -8.62 112.46 -8.27 L 112.46 -8.27 Q 112.46 -7.04 111.14 -5.59 Q 109.82 -4.14 107.62 -2.82 L 107.62 -2.82 Q 105.86 -1.06 103.4 -0.09 L 103.4 -0.09 Q 100.58 1.94 96.84 3.52 Q 93.1 5.1 90.02 5.1 L 90.02 5.1 Q 89.32 5.1 88.26 4.93 L 88.26 4.93 Z M 146.7 1.76 Q 143.62 -0.62 142.65 -1.98 Q 141.68 -3.34 141.5 -5.37 L 141.5 -5.37 Q 141.42 -5.81 141.42 -6.95 L 141.42 -6.95 Q 141.42 -9.42 141.86 -13.11 Q 142.3 -16.81 142.74 -19.01 L 142.74 -19.01 Q 143.09 -19.36 143.13 -20.06 Q 143.18 -20.77 143.09 -20.94 L 143.09 -20.94 Q 143.09 -21.21 143.53 -22.7 L 143.53 -22.7 Q 144.58 -25.96 145.02 -28.16 L 145.02 -28.16 Q 147.4 -35.38 149.69 -39.69 Q 151.98 -44 154.79 -47.78 L 154.79 -47.78 Q 158.58 -51.66 160.73 -53.46 Q 162.89 -55.26 165.53 -56.5 L 165.53 -56.5 Q 168.96 -58.52 170.46 -58.52 L 170.46 -58.52 Q 170.72 -58.52 171.25 -58.34 L 171.25 -58.34 Q 176.18 -57.29 178.64 -54.34 Q 181.1 -51.39 182.25 -45.23 L 182.25 -45.23 Q 183.04 -39.86 183.04 -37.14 L 183.04 -37.14 Q 183.04 -32.74 181.46 -28.25 Q 179.87 -23.76 175.74 -16.98 L 175.74 -16.98 Q 170.98 -7.66 164.52 -2.02 Q 158.05 3.61 152.33 3.61 L 152.33 3.61 Q 149.25 3.61 146.7 1.76 L 146.7 1.76 Z M 152.33 -0.79 Q 155.32 -1.14 158 -3.12 Q 160.69 -5.1 164.65 -9.68 L 164.65 -9.68 Q 168.08 -13.64 169.53 -15.66 Q 170.98 -17.69 172.13 -20.5 Q 173.27 -23.32 174.94 -29.13 L 174.94 -29.13 Q 175.91 -32.82 176.22 -34.89 Q 176.53 -36.96 176.53 -39.86 L 176.53 -39.86 L 176.44 -45.58 Q 176.35 -47.08 175.82 -48.71 Q 175.3 -50.34 174.59 -51.13 L 174.59 -51.13 Q 173.27 -52.62 171.16 -52.62 L 171.16 -52.62 Q 169.84 -52.62 168.61 -52.01 L 168.61 -52.01 Q 166.94 -51.3 163.68 -47.92 Q 160.42 -44.53 157.83 -40.96 Q 155.23 -37.4 155.23 -36.34 L 155.23 -36.34 Q 155.23 -36.26 155.14 -35.82 Q 155.06 -35.38 154.79 -35.02 L 154.79 -35.02 Q 153.3 -33.44 151.45 -28.6 Q 149.6 -23.76 148.19 -18.13 Q 146.78 -12.5 146.61 -8.71 L 146.61 -8.71 L 146.43 -5.72 Q 146.43 -4.93 146.56 -4.49 Q 146.7 -4.05 147.14 -3.48 Q 147.58 -2.9 147.93 -2.29 L 147.93 -2.29 Q 148.37 -1.58 149.34 -1.14 Q 150.3 -0.7 151.36 -0.7 L 151.36 -0.7 Q 151.98 -0.7 152.33 -0.79 L 152.33 -0.79 Z M 254.32 4.22 Q 254.32 4.58 253.7 4.58 L 253.7 4.58 Q 253.26 4.58 252.65 4.22 Q 252.03 3.87 251.68 3.26 L 251.68 3.26 Q 250.98 1.76 250.98 -0.44 L 250.98 -0.44 L 251.06 -4.05 Q 253.79 -20.06 257.49 -36.26 L 257.49 -36.26 Q 258.72 -40.57 259.56 -44.44 Q 260.39 -48.31 260.57 -49.37 L 260.57 -49.37 Q 260.57 -49.63 260.08 -49.15 Q 259.6 -48.66 259.16 -48 Q 258.72 -47.34 258.81 -47.08 L 258.81 -47.08 L 256.61 -43.82 Q 256.08 -43.3 254.14 -39.78 L 254.14 -39.78 Q 252.82 -36.96 251.77 -35.38 L 251.77 -35.38 L 249.3 -30.71 Q 246.58 -25.7 245.96 -24.64 L 245.96 -24.64 Q 245.08 -23.32 243.41 -20.06 L 243.41 -20.06 Q 242.53 -17.95 240.24 -15.05 L 240.24 -15.05 Q 239.54 -14.08 238.88 -12.94 Q 238.22 -11.79 238.04 -11.44 L 238.04 -11.44 Q 238.04 -11 236.24 -8.45 Q 234.43 -5.9 232.94 -4.22 L 232.94 -4.22 Q 230.91 -2.11 229.59 -1.19 Q 228.27 -0.26 227.13 -0.26 L 227.13 -0.26 Q 225.63 -0.26 223.87 -1.94 L 223.87 -1.94 Q 222.73 -3.17 222.24 -4.84 Q 221.76 -6.51 221.76 -8.98 L 221.76 -8.98 Q 221.76 -11.18 222.38 -16.37 L 222.38 -16.37 Q 222.46 -16.81 224.05 -25.78 L 224.05 -25.78 Q 225.72 -34.85 226.07 -35.73 L 226.07 -35.73 Q 226.16 -36.26 226.16 -36.96 L 226.16 -36.96 Q 226.16 -37.75 225.9 -37.75 L 225.9 -37.75 Q 225.63 -37.75 224.93 -36.61 L 224.93 -36.61 Q 224.66 -36.26 221.8 -31.68 Q 218.94 -27.1 215.69 -19.98 L 215.69 -19.98 Q 210.58 -10.56 208.12 -5.85 Q 205.66 -1.14 204.51 0.88 L 204.51 0.88 Q 203.02 3.78 202.75 4.05 L 202.75 4.05 Q 201.43 4.05 199.41 1.85 L 199.41 1.85 Q 199.14 1.32 199.14 0.88 L 199.14 0.88 Q 199.14 0.26 199.72 -1.14 Q 200.29 -2.55 201.34 -4.84 L 201.34 -4.84 Q 204.07 -10.21 204.95 -10.91 L 204.95 -10.91 Q 206.01 -12.32 206.18 -13.99 L 206.18 -13.99 Q 207.33 -15.58 209.44 -19.71 L 209.44 -19.71 Q 210.76 -21.82 212.56 -24.99 Q 214.37 -28.16 215.78 -31.06 L 215.78 -31.06 L 218.24 -35.38 Q 221.67 -41.36 223.74 -44.62 Q 225.81 -47.87 226.86 -48.93 L 226.86 -48.93 Q 228.27 -50.6 228.27 -51.57 L 228.27 -51.57 Q 228.27 -53.42 229.02 -54.96 Q 229.77 -56.5 230.56 -56.32 L 230.56 -56.32 Q 231.62 -56.32 232.28 -56.1 Q 232.94 -55.88 233.64 -55 L 233.64 -55 Q 233.82 -54.74 234.21 -54.16 Q 234.61 -53.59 234.83 -52.93 Q 235.05 -52.27 235.05 -51.3 L 235.05 -51.3 Q 235.05 -50.25 234.78 -48.66 L 234.78 -48.66 Q 234.7 -47.52 234.08 -43.47 L 234.08 -43.47 Q 233.73 -41.54 233.73 -41.1 L 233.73 -41.1 Q 231.44 -34.14 229.64 -23.72 Q 227.83 -13.29 227.83 -9.06 L 227.83 -9.06 Q 227.83 -8.1 228.01 -7.74 L 228.01 -7.74 Q 228.62 -7.3 229.11 -7.66 Q 229.59 -8.01 230.56 -9.94 L 230.56 -9.94 Q 231.7 -12.06 234.43 -15.4 L 234.43 -15.4 Q 234.61 -15.66 237.86 -21.21 L 237.86 -21.21 Q 245.96 -34.5 253.62 -47.87 L 253.62 -47.87 L 255.9 -51.48 Q 257.22 -53.59 258.46 -55.4 Q 259.69 -57.2 260.39 -57.73 L 260.39 -57.73 Q 261.27 -58.43 262.06 -58.43 L 262.06 -58.43 Q 263.74 -58.43 265.06 -56.41 Q 266.38 -54.38 266.38 -51.3 L 266.38 -51.3 Q 266.38 -48.93 265.41 -44.04 Q 264.44 -39.16 262.86 -34.23 L 262.86 -34.23 Q 262.33 -31.77 261.36 -28.07 Q 260.39 -24.38 259.34 -21.38 L 259.34 -21.38 Q 259.16 -19.89 258.63 -17.6 L 258.63 -17.6 Q 258.54 -17.16 258.15 -14.92 Q 257.75 -12.67 257.93 -11.88 L 257.93 -11.88 Q 256.61 -9.5 256.61 -2.38 L 256.61 -2.38 L 256.34 -0.35 Q 256.17 2.11 255.99 2.99 Q 255.82 3.87 255.46 3.78 L 255.46 3.78 Q 255.29 3.7 254.94 3.7 L 254.94 3.7 Q 254.32 3.7 254.32 4.22 L 254.32 4.22 Z M 338.89 4.22 Q 338.89 4.58 338.27 4.58 L 338.27 4.58 Q 337.83 4.58 337.22 4.22 Q 336.6 3.87 336.25 3.26 L 336.25 3.26 Q 335.54 1.76 335.54 -0.44 L 335.54 -0.44 L 335.63 -4.05 Q 338.36 -20.06 342.06 -36.26 L 342.06 -36.26 Q 343.29 -40.57 344.12 -44.44 Q 344.96 -48.31 345.14 -49.37 L 345.14 -49.37 Q 345.14 -49.63 344.65 -49.15 Q 344.17 -48.66 343.73 -48 Q 343.29 -47.34 343.38 -47.08 L 343.38 -47.08 L 341.18 -43.82 Q 340.65 -43.3 338.71 -39.78 L 338.71 -39.78 Q 337.39 -36.96 336.34 -35.38 L 336.34 -35.38 L 333.87 -30.71 Q 331.14 -25.7 330.53 -24.64 L 330.53 -24.64 Q 329.65 -23.32 327.98 -20.06 L 327.98 -20.06 Q 327.1 -17.95 324.81 -15.05 L 324.81 -15.05 Q 324.1 -14.08 323.44 -12.94 Q 322.78 -11.79 322.61 -11.44 L 322.61 -11.44 Q 322.61 -11 320.8 -8.45 Q 319 -5.9 317.5 -4.22 L 317.5 -4.22 Q 315.48 -2.11 314.16 -1.19 Q 312.84 -0.26 311.7 -0.26 L 311.7 -0.26 Q 310.2 -0.26 308.44 -1.94 L 308.44 -1.94 Q 307.3 -3.17 306.81 -4.84 Q 306.33 -6.51 306.33 -8.98 L 306.33 -8.98 Q 306.33 -11.18 306.94 -16.37 L 306.94 -16.37 Q 307.03 -16.81 308.62 -25.78 L 308.62 -25.78 Q 310.29 -34.85 310.64 -35.73 L 310.64 -35.73 Q 310.73 -36.26 310.73 -36.96 L 310.73 -36.96 Q 310.73 -37.75 310.46 -37.75 L 310.46 -37.75 Q 310.2 -37.75 309.5 -36.61 L 309.5 -36.61 Q 309.23 -36.26 306.37 -31.68 Q 303.51 -27.1 300.26 -19.98 L 300.26 -19.98 Q 295.15 -10.56 292.69 -5.85 Q 290.22 -1.14 289.08 0.88 L 289.08 0.88 Q 287.58 3.78 287.32 4.05 L 287.32 4.05 Q 286 4.05 283.98 1.85 L 283.98 1.85 Q 283.71 1.32 283.71 0.88 L 283.71 0.88 Q 283.71 0.26 284.28 -1.14 Q 284.86 -2.55 285.91 -4.84 L 285.91 -4.84 Q 288.64 -10.21 289.52 -10.91 L 289.52 -10.91 Q 290.58 -12.32 290.75 -13.99 L 290.75 -13.99 Q 291.9 -15.58 294.01 -19.71 L 294.01 -19.71 Q 295.33 -21.82 297.13 -24.99 Q 298.94 -28.16 300.34 -31.06 L 300.34 -31.06 L 302.81 -35.38 Q 306.24 -41.36 308.31 -44.62 Q 310.38 -47.87 311.43 -48.93 L 311.43 -48.93 Q 312.84 -50.6 312.84 -51.57 L 312.84 -51.57 Q 312.84 -53.42 313.59 -54.96 Q 314.34 -56.5 315.13 -56.32 L 315.13 -56.32 Q 316.18 -56.32 316.84 -56.1 Q 317.5 -55.88 318.21 -55 L 318.21 -55 Q 318.38 -54.74 318.78 -54.16 Q 319.18 -53.59 319.4 -52.93 Q 319.62 -52.27 319.62 -51.3 L 319.62 -51.3 Q 319.62 -50.25 319.35 -48.66 L 319.35 -48.66 Q 319.26 -47.52 318.65 -43.47 L 318.65 -43.47 Q 318.3 -41.54 318.3 -41.1 L 318.3 -41.1 Q 316.01 -34.14 314.2 -23.72 Q 312.4 -13.29 312.4 -9.06 L 312.4 -9.06 Q 312.4 -8.1 312.58 -7.74 L 312.58 -7.74 Q 313.19 -7.3 313.68 -7.66 Q 314.16 -8.01 315.13 -9.94 L 315.13 -9.94 Q 316.27 -12.06 319 -15.4 L 319 -15.4 Q 319.18 -15.66 322.43 -21.21 L 322.43 -21.21 Q 330.53 -34.5 338.18 -47.87 L 338.18 -47.87 L 340.47 -51.48 Q 341.79 -53.59 343.02 -55.4 Q 344.26 -57.2 344.96 -57.73 L 344.96 -57.73 Q 345.84 -58.43 346.63 -58.43 L 346.63 -58.43 Q 348.3 -58.43 349.62 -56.41 Q 350.94 -54.38 350.94 -51.3 L 350.94 -51.3 Q 350.94 -48.93 349.98 -44.04 Q 349.01 -39.16 347.42 -34.23 L 347.42 -34.23 Q 346.9 -31.77 345.93 -28.07 Q 344.96 -24.38 343.9 -21.38 L 343.9 -21.38 Q 343.73 -19.89 343.2 -17.6 L 343.2 -17.6 Q 343.11 -17.16 342.72 -14.92 Q 342.32 -12.67 342.5 -11.88 L 342.5 -11.88 Q 341.18 -9.5 341.18 -2.38 L 341.18 -2.38 L 340.91 -0.35 Q 340.74 2.11 340.56 2.99 Q 340.38 3.87 340.03 3.78 L 340.03 3.78 Q 339.86 3.7 339.5 3.7 L 339.5 3.7 Q 338.89 3.7 338.89 4.22 L 338.89 4.22 Z M 387.29 2.11 Q 385.35 2.02 383.68 1.14 Q 382.01 0.26 379.9 -1.41 L 379.9 -1.41 L 378.14 -2.64 Q 376.55 -4.22 375.72 -5.94 Q 374.88 -7.66 374.35 -10.38 L 374.35 -10.38 Q 374.18 -11.44 374.18 -12.23 L 374.18 -12.23 Q 374.18 -14.78 375.06 -18.26 Q 375.94 -21.74 376.99 -23.94 L 376.99 -23.94 Q 378.93 -28.6 385.53 -38.9 L 385.53 -38.9 Q 385.88 -39.25 386.01 -39.38 Q 386.14 -39.51 386.1 -39.56 Q 386.06 -39.6 386.06 -39.6 L 386.06 -39.6 Q 386.06 -40.22 388.61 -45.06 L 388.61 -45.06 Q 390.1 -46.64 390.1 -47.78 L 390.1 -47.78 Q 390.1 -48.4 389.84 -48.75 L 389.84 -48.75 Q 389.49 -49.19 391.47 -50.91 Q 393.45 -52.62 396.44 -54.3 L 396.44 -54.3 Q 398.82 -56.14 401.1 -56.14 L 401.1 -56.14 Q 401.81 -56.14 402.29 -55.92 Q 402.78 -55.7 402.86 -55.26 L 402.86 -55.26 Q 402.86 -54.74 406.38 -55.62 L 406.38 -55.62 Q 407.97 -55.97 408.67 -56.06 L 408.67 -56.06 Q 409.02 -56.5 410.48 -56.8 Q 411.93 -57.11 414.57 -57.46 L 414.57 -57.46 Q 415.98 -57.38 417.47 -57.46 Q 418.97 -57.55 419.41 -57.64 L 419.41 -57.64 Q 420.11 -57.9 420.95 -57.42 Q 421.78 -56.94 422.4 -55.53 L 422.4 -55.53 Q 422.66 -54.91 422.66 -54.38 L 422.66 -54.38 Q 422.66 -53.42 421.48 -52.84 Q 420.29 -52.27 417.38 -51.92 L 417.38 -51.92 Q 414.48 -51.57 413.78 -51.48 L 413.78 -51.48 Q 408.94 -50.95 403.57 -49.81 L 403.57 -49.81 Q 400.14 -49.1 398.6 -48.05 Q 397.06 -46.99 395.12 -44 L 395.12 -44 Q 394.5 -43.56 393.54 -41.76 Q 392.57 -39.95 391.6 -38.02 L 391.6 -38.02 Q 391.34 -37.66 390.98 -37.14 Q 390.63 -36.61 390.1 -35.99 L 390.1 -35.99 Q 387.55 -32.56 386.58 -31.02 Q 385.62 -29.48 385.88 -29.13 L 385.88 -29.13 Q 386.14 -29.04 386.89 -28.86 Q 387.64 -28.69 388.17 -28.6 L 388.17 -28.6 Q 388.96 -29.04 390.37 -29.22 Q 391.78 -29.39 392.39 -29.57 L 392.39 -29.57 Q 406.38 -33.18 408.23 -33.44 L 408.23 -33.44 Q 409.02 -33.97 409.73 -33.97 L 409.73 -33.97 Q 411.31 -33.97 412.54 -31.86 L 412.54 -31.86 Q 412.81 -31.33 412.81 -30.89 L 412.81 -30.89 Q 412.81 -30.1 411.58 -29.39 Q 410.34 -28.69 406.91 -27.68 Q 403.48 -26.66 398.64 -25.34 L 398.64 -25.34 L 395.82 -24.55 Q 390.1 -22.88 386.94 -22.88 L 386.94 -22.88 Q 384.21 -22.88 384.3 -24.38 L 384.3 -24.38 Q 383.42 -24.82 382.32 -22.44 Q 381.22 -20.06 380.42 -16.59 Q 379.63 -13.11 379.63 -10.74 L 379.63 -10.74 Q 379.63 -9.5 379.9 -8.8 L 379.9 -8.8 Q 380.69 -6.6 381.88 -5.46 Q 383.06 -4.31 385.88 -3.52 L 385.88 -3.52 Q 386.5 -3.43 387.42 -3.34 Q 388.34 -3.26 389.58 -3.26 L 389.58 -3.26 Q 391.34 -3.26 393.1 -3.96 L 393.1 -3.96 Q 397.58 -4.75 400.8 -5.72 Q 404.01 -6.69 404.71 -7.13 L 404.71 -7.13 Q 405.24 -7.39 405.59 -7.48 Q 405.94 -7.57 406.3 -7.57 L 406.3 -7.57 L 406.21 -7.39 Q 406.21 -7.39 406.21 -7.35 Q 406.21 -7.3 406.3 -7.3 L 406.3 -7.3 Q 406.56 -7.3 407.88 -8.8 L 407.88 -8.8 Q 409.38 -10.03 411.97 -11.18 Q 414.57 -12.32 414.66 -11.7 L 414.66 -11.7 Q 414.83 -11.18 414.83 -10.82 L 414.83 -10.82 Q 414.83 -9.15 412.76 -6.82 Q 410.7 -4.49 407.18 -2.46 L 407.18 -2.46 Q 402.86 -0.18 397.54 0.92 Q 392.22 2.02 387.29 2.11 L 387.29 2.11 Z M 479.78 -55.7 Q 487.61 -51.04 487.61 -45.14 L 487.61 -45.14 Q 487.61 -43.03 486.64 -40.66 L 486.64 -40.66 Q 485.23 -37.14 479.51 -32.34 Q 473.79 -27.54 468.86 -25.43 L 468.86 -25.43 Q 466.93 -24.55 464.38 -23.67 Q 461.82 -22.79 459.36 -22 L 459.36 -22 Q 457.6 -21.56 455.84 -21.65 L 455.84 -21.65 L 456.02 -21.47 Q 458.04 -16.98 463.85 -10.56 L 463.85 -10.56 Q 466.58 -7.39 471.33 -3.3 Q 476.08 0.79 479.51 2.46 L 479.51 2.46 Q 479.86 2.82 479.86 3.52 L 479.86 3.52 Q 479.86 4.31 479.38 5.24 Q 478.9 6.16 478.54 6.25 L 478.54 6.25 Q 478.37 6.34 478.1 6.42 Q 477.84 6.51 477.49 6.51 L 477.49 6.51 Q 476.26 6.51 473.97 5.02 L 473.97 5.02 Q 469.83 2.55 465.96 -0.75 Q 462.09 -4.05 457.51 -9.33 L 457.51 -9.33 Q 455.49 -11.7 454.3 -13.51 Q 453.11 -15.31 451.79 -18.39 L 451.79 -18.39 L 451.62 -17.86 Q 448.98 -8.89 443.61 5.28 L 443.61 5.28 Q 443.17 6.34 442.29 6.34 L 442.29 6.34 Q 441.32 6.34 439.91 5.19 L 439.91 5.19 Q 439.74 5.02 439.3 4.58 Q 438.86 4.14 438.68 3.83 Q 438.5 3.52 438.5 3.17 L 438.5 3.17 Q 438.5 2.38 439.91 -0.79 L 439.91 -0.79 L 440.97 -3.17 Q 441.5 -6.34 443.52 -10.47 L 443.52 -10.47 Q 444.14 -12.58 450.65 -28.42 L 450.65 -28.42 L 452.23 -32.3 L 453.2 -34.58 Q 455.58 -40.57 459.62 -49.46 L 459.62 -49.46 Q 460.06 -50.78 460.06 -51.13 L 460.06 -51.13 Q 460.06 -52.27 458.57 -52.27 L 458.57 -52.27 Q 457.6 -53.42 457.6 -54.38 L 457.6 -54.38 Q 457.6 -55.35 458.48 -55.7 L 458.48 -55.7 L 463.06 -57.55 Q 466.14 -58.26 469.04 -58.26 L 469.04 -58.26 Q 474.94 -58.26 479.78 -55.7 L 479.78 -55.7 Z M 466.05 -29.48 Q 472.38 -32.38 477.4 -36.74 Q 482.42 -41.1 482.15 -45.23 L 482.15 -45.23 Q 482.15 -46.9 480.39 -48.75 Q 478.63 -50.6 476.78 -51.13 L 476.78 -51.13 Q 471.42 -52.36 469.57 -52.36 L 469.57 -52.36 Q 467.98 -52.36 467.06 -51.7 Q 466.14 -51.04 465.78 -49.63 L 465.78 -49.63 Q 465.78 -49.37 464.64 -47.08 L 464.64 -47.08 Q 462.09 -41.54 461.38 -39.51 L 461.38 -39.51 L 459.36 -35.38 Q 456.54 -29.74 455.97 -28.34 Q 455.4 -26.93 455.84 -26.49 L 455.84 -26.49 Q 459.45 -26.75 466.05 -29.48 L 466.05 -29.48 Z M 517.7 4.93 Q 514.98 3.96 513.26 2.73 Q 511.54 1.5 510.4 -1.32 L 510.4 -1.32 Q 508.99 -5.28 508.99 -10.65 L 508.99 -10.65 Q 508.99 -15.84 509.61 -19.49 Q 510.22 -23.14 511.72 -26.93 L 511.72 -26.93 L 512.51 -28.78 Q 513.92 -32.38 514.54 -33.53 L 514.54 -33.53 Q 516.03 -36.96 519.82 -42.42 L 519.82 -42.42 Q 523.16 -47.52 525.1 -49.85 Q 527.03 -52.18 528.84 -53.59 Q 530.64 -55 535.48 -58.34 L 535.48 -58.34 Q 537.5 -59.84 540.14 -59.84 L 540.14 -59.84 Q 542.34 -59.84 544.24 -58.74 Q 546.13 -57.64 547.1 -55.62 L 547.1 -55.62 Q 548.06 -53.94 548.06 -51.13 L 548.06 -51.13 Q 548.06 -47.17 546.3 -42.86 Q 544.54 -38.54 541.82 -36.08 L 541.82 -36.08 Q 540.94 -35.29 540.14 -35.29 L 540.14 -35.29 Q 539.18 -35.29 537.59 -36.7 L 537.59 -36.7 Q 536.8 -38.19 536.71 -38.46 Q 536.62 -38.72 537.06 -38.81 L 537.06 -38.81 Q 537.86 -39.78 539.4 -42.55 Q 540.94 -45.32 541.46 -46.9 L 541.46 -46.9 Q 541.64 -47.43 541.82 -48.66 L 541.82 -48.66 Q 542.52 -51.74 542.52 -52.8 L 542.52 -52.8 Q 542.52 -53.86 541.9 -54.47 L 541.9 -54.47 Q 541.64 -54.74 541.2 -54.74 L 541.2 -54.74 Q 540.5 -54.74 538.74 -53.86 L 538.74 -53.86 Q 536.62 -52.98 533.37 -49.9 Q 530.11 -46.82 527.47 -43.21 L 527.47 -43.21 Q 523.42 -37.93 521.27 -34.5 Q 519.11 -31.06 517.97 -27.54 L 517.97 -27.54 L 517 -25.26 Q 517.09 -24.9 516.74 -23.5 Q 516.38 -22.09 515.94 -21.21 L 515.94 -21.21 Q 514.71 -16.1 514.71 -11.09 L 514.71 -11.09 Q 514.71 -7.3 515.37 -4.4 Q 516.03 -1.5 517.26 -0.44 L 517.26 -0.44 Q 517.97 0.18 519.38 0.18 L 519.38 0.18 Q 521.14 0.18 523.73 -0.7 Q 526.33 -1.58 530.11 -3.26 L 530.11 -3.26 Q 532.14 -4.05 533.94 -5.1 Q 535.74 -6.16 536.62 -7.04 L 536.62 -7.04 Q 538.91 -8.71 540.32 -8.71 L 540.32 -8.71 Q 541.29 -9.06 541.64 -9.06 L 541.64 -9.06 Q 541.82 -9.06 541.86 -8.84 Q 541.9 -8.62 541.9 -8.27 L 541.9 -8.27 Q 541.9 -7.04 540.58 -5.59 Q 539.26 -4.14 537.06 -2.82 L 537.06 -2.82 Q 535.3 -1.06 532.84 -0.09 L 532.84 -0.09 Q 530.02 1.94 526.28 3.52 Q 522.54 5.1 519.46 5.1 L 519.46 5.1 Q 518.76 5.1 517.7 4.93 L 517.7 4.93 Z M 582.74 2.11 Q 580.8 2.02 579.13 1.14 Q 577.46 0.26 575.34 -1.41 L 575.34 -1.41 L 573.58 -2.64 Q 572 -4.22 571.16 -5.94 Q 570.33 -7.66 569.8 -10.38 L 569.8 -10.38 Q 569.62 -11.44 569.62 -12.23 L 569.62 -12.23 Q 569.62 -14.78 570.5 -18.26 Q 571.38 -21.74 572.44 -23.94 L 572.44 -23.94 Q 574.38 -28.6 580.98 -38.9 L 580.98 -38.9 Q 581.33 -39.25 581.46 -39.38 Q 581.59 -39.51 581.55 -39.56 Q 581.5 -39.6 581.5 -39.6 L 581.5 -39.6 Q 581.5 -40.22 584.06 -45.06 L 584.06 -45.06 Q 585.55 -46.64 585.55 -47.78 L 585.55 -47.78 Q 585.55 -48.4 585.29 -48.75 L 585.29 -48.75 Q 584.94 -49.19 586.92 -50.91 Q 588.9 -52.62 591.89 -54.3 L 591.89 -54.3 Q 594.26 -56.14 596.55 -56.14 L 596.55 -56.14 Q 597.26 -56.14 597.74 -55.92 Q 598.22 -55.7 598.31 -55.26 L 598.31 -55.26 Q 598.31 -54.74 601.83 -55.62 L 601.83 -55.62 Q 603.42 -55.97 604.12 -56.06 L 604.12 -56.06 Q 604.47 -56.5 605.92 -56.8 Q 607.38 -57.11 610.02 -57.46 L 610.02 -57.46 Q 611.42 -57.38 612.92 -57.46 Q 614.42 -57.55 614.86 -57.64 L 614.86 -57.64 Q 615.56 -57.9 616.4 -57.42 Q 617.23 -56.94 617.85 -55.53 L 617.85 -55.53 Q 618.11 -54.91 618.11 -54.38 L 618.11 -54.38 Q 618.11 -53.42 616.92 -52.84 Q 615.74 -52.27 612.83 -51.92 L 612.83 -51.92 Q 609.93 -51.57 609.22 -51.48 L 609.22 -51.48 Q 604.38 -50.95 599.02 -49.81 L 599.02 -49.81 Q 595.58 -49.1 594.04 -48.05 Q 592.5 -46.99 590.57 -44 L 590.57 -44 Q 589.95 -43.56 588.98 -41.76 Q 588.02 -39.95 587.05 -38.02 L 587.05 -38.02 Q 586.78 -37.66 586.43 -37.14 Q 586.08 -36.61 585.55 -35.99 L 585.55 -35.99 Q 583 -32.56 582.03 -31.02 Q 581.06 -29.48 581.33 -29.13 L 581.33 -29.13 Q 581.59 -29.04 582.34 -28.86 Q 583.09 -28.69 583.62 -28.6 L 583.62 -28.6 Q 584.41 -29.04 585.82 -29.22 Q 587.22 -29.39 587.84 -29.57 L 587.84 -29.57 Q 601.83 -33.18 603.68 -33.44 L 603.68 -33.44 Q 604.47 -33.97 605.18 -33.97 L 605.18 -33.97 Q 606.76 -33.97 607.99 -31.86 L 607.99 -31.86 Q 608.26 -31.33 608.26 -30.89 L 608.26 -30.89 Q 608.26 -30.1 607.02 -29.39 Q 605.79 -28.69 602.36 -27.68 Q 598.93 -26.66 594.09 -25.34 L 594.09 -25.34 L 591.27 -24.55 Q 585.55 -22.88 582.38 -22.88 L 582.38 -22.88 Q 579.66 -22.88 579.74 -24.38 L 579.74 -24.38 Q 578.86 -24.82 577.76 -22.44 Q 576.66 -20.06 575.87 -16.59 Q 575.08 -13.11 575.08 -10.74 L 575.08 -10.74 Q 575.08 -9.5 575.34 -8.8 L 575.34 -8.8 Q 576.14 -6.6 577.32 -5.46 Q 578.51 -4.31 581.33 -3.52 L 581.33 -3.52 Q 581.94 -3.43 582.87 -3.34 Q 583.79 -3.26 585.02 -3.26 L 585.02 -3.26 Q 586.78 -3.26 588.54 -3.96 L 588.54 -3.96 Q 593.03 -4.75 596.24 -5.72 Q 599.46 -6.69 600.16 -7.13 L 600.16 -7.13 Q 600.69 -7.39 601.04 -7.48 Q 601.39 -7.57 601.74 -7.57 L 601.74 -7.57 L 601.66 -7.39 Q 601.66 -7.39 601.66 -7.35 Q 601.66 -7.3 601.74 -7.3 L 601.74 -7.3 Q 602.01 -7.3 603.33 -8.8 L 603.33 -8.8 Q 604.82 -10.03 607.42 -11.18 Q 610.02 -12.32 610.1 -11.7 L 610.1 -11.7 Q 610.28 -11.18 610.28 -10.82 L 610.28 -10.82 Q 610.28 -9.15 608.21 -6.82 Q 606.14 -4.49 602.62 -2.46 L 602.62 -2.46 Q 598.31 -0.18 592.99 0.92 Q 587.66 2.02 582.74 2.11 L 582.74 2.11 Z" stroke-linecap="round" />
</g>
</g>
</g>
</svg>